<?xml version="1.0" encoding="iso-8859-1"?>
<!-- Uploaded to: SVG Repo, www.svgrepo.com, Generator: SVG Repo Mixer Tools -->
<svg fill="#000000" height="800px" width="800px" version="1.1" id="Layer_1" xmlns="http://www.w3.org/2000/svg" xmlns:xlink="http://www.w3.org/1999/xlink" 
	 viewBox="0 0 491.52 491.52" xml:space="preserve">
<g>
	<g>
		<path d="M430.08,245.76v-61.44h-61.44v20.48h-92.16v-20.48h-61.44v20.48h-92.16v-20.48H61.44v61.44h61.44v-20.48h43.693
			c-47.875,26.592-80.612,76.407-84.177,133.12H61.44v61.44h61.44V358.4h-20.004c4.538-63.164,50.508-116.276,112.164-129.758
			v17.117h61.44v-17.117c61.657,13.482,107.627,66.594,112.164,129.758H368.64v61.44h61.44V358.4h-20.956
			c-3.566-56.713-36.302-106.528-84.177-133.12h43.693v20.48H430.08z M389.12,204.8h20.48v20.48h-20.48V204.8z M102.4,225.28H81.92
			V204.8h20.48V225.28z M102.4,399.36H81.92v-20.48h20.48V399.36z M256,225.28h-20.48V204.8H256V225.28z M389.12,378.88h20.48v20.48
			h-20.48V378.88z"/>
	</g>
</g>
<g>
	<g>
		<path d="M352.4,0H30.72v491.52H460.8V108.4L352.4,0z M358.4,34.96l67.44,67.44H358.4V34.96z M440.32,471.04H51.2V20.48h286.72
			v102.4h102.4V471.04z"/>
	</g>
</g>
</svg>