<?xml version="1.0" standalone="no"?>
<!DOCTYPE svg PUBLIC "-//W3C//DTD SVG 20010904//EN"
 "http://www.w3.org/TR/2001/REC-SVG-20010904/DTD/svg10.dtd">
<svg version="1.0" xmlns="http://www.w3.org/2000/svg"
 width="512.000000pt" height="512.000000pt" viewBox="0 0 512.000000 512.000000"
 preserveAspectRatio="xMidYMid meet">

<g transform="translate(0.000000,512.000000) scale(0.100000,-0.100000)"
fill="#000000" stroke="none">
<path d="M3976 5099 l-26 -20 0 -190 0 -189 -771 0 -771 0 -29 -29 c-34 -35
-36 -59 -8 -95 l20 -26 777 -2 777 -3 3 -82 3 -83 -1233 0 c-811 0 -1248 -4
-1278 -11 -57 -13 -105 -49 -130 -99 -20 -38 -20 -60 -20 -957 l0 -918 -85 85
-85 85 0 943 c0 1044 -4 977 64 1018 29 18 63 19 484 24 434 5 454 6 468 24
20 28 17 69 -5 97 l-19 24 -464 0 -463 0 -57 -28 c-34 -17 -72 -46 -93 -71
-68 -84 -65 -35 -65 -1004 l0 -875 -55 52 c-87 82 -158 100 -240 62 -26 -12
-146 -126 -347 -327 -256 -258 -308 -316 -317 -349 -14 -50 -14 -60 0 -110 9
-33 61 -91 317 -349 201 -201 321 -315 347 -327 80 -37 157 -16 235 65 24 25
48 46 52 46 4 0 8 -73 8 -163 l0 -163 -31 -30 c-66 -62 -64 -47 -67 -509 -2
-288 0 -434 8 -465 15 -60 53 -108 104 -131 38 -17 72 -19 476 -19 404 0 438
2 476 19 51 23 90 72 103 131 6 25 11 123 11 217 l0 173 1001 2 1001 3 24 28
c29 34 30 56 3 91 l-20 26 -1005 0 -1004 0 0 85 0 85 1303 2 c1203 3 1304 4
1333 20 44 24 91 81 103 125 8 26 11 530 11 1564 l0 1527 44 11 c74 18 122 98
97 163 -5 14 -55 80 -110 147 -56 66 -101 124 -101 127 0 4 34 4 76 2 85 -6
118 -23 146 -79 17 -32 18 -141 18 -1847 0 -1991 4 -1856 -61 -1903 -33 -24
-39 -24 -307 -29 -256 -5 -275 -6 -288 -24 -20 -28 -17 -69 5 -97 l19 -24 279
0 c262 0 281 1 324 21 63 30 116 79 147 138 l27 51 0 1865 0 1865 -27 50 c-53
101 -134 151 -264 163 l-77 7 88 105 c120 144 135 185 88 256 -34 53 -48 54
-501 54 -409 0 -420 -1 -446 -21z m752 -181 c-221 -264 -233 -284 -204 -350 8
-18 64 -93 125 -167 62 -74 114 -138 117 -142 3 -5 -146 -9 -330 -9 l-336 0 0
360 0 360 336 0 336 0 -44 -52z m-783 -942 l0 -249 -40 -12 c-54 -16 -98 -40
-138 -75 l-34 -29 -619 -3 -619 -3 -80 -27 c-116 -40 -197 -92 -281 -182 -189
-200 -237 -484 -125 -731 47 -103 93 -156 330 -377 119 -111 218 -206 219
-210 2 -4 -185 -8 -415 -8 -371 0 -421 -2 -442 -16 -43 -31 -51 -70 -51 -264
0 -194 8 -233 51 -264 21 -14 79 -16 549 -16 569 0 584 1 697 56 113 54 216
178 254 307 28 90 23 234 -10 320 -37 96 -102 169 -385 432 -171 159 -275 263
-283 283 -11 27 -11 38 1 66 29 69 -2 66 634 66 l574 0 36 -31 c20 -18 61 -44
92 -58 48 -23 68 -26 160 -26 97 0 110 2 172 32 257 121 317 455 119 653 -49
49 -157 110 -193 110 -17 0 -18 16 -18 190 l0 190 275 0 275 0 0 -1529 0
-1530 -22 -15 c-20 -14 -160 -16 -1301 -16 l-1278 0 -14 33 c-20 49 -53 85
-96 107 -35 18 -59 20 -269 20 l-230 0 0 396 0 396 25 29 c46 55 46 151 1 220
l-26 39 0 979 c0 923 1 981 18 990 11 7 425 10 1252 8 l1235 -2 0 -249z m5
-545 c0 -139 0 -140 26 -160 33 -26 65 -27 95 -2 23 18 24 26 27 160 2 78 6
141 9 141 4 0 26 -11 49 -25 74 -43 125 -136 123 -224 -3 -217 -262 -332 -424
-189 -113 100 -120 275 -14 375 32 30 85 63 102 63 4 0 7 -63 7 -139z m-1292
-107 l3 -131 -66 -6 c-51 -4 -78 -12 -118 -37 l-52 -32 -120 59 -119 60 58 61
c94 98 245 164 366 159 l45 -2 3 -131z m542 1 l0 -135 -195 0 -195 0 0 135 0
135 195 0 195 0 0 -135z m423 88 c-10 -61 -10 -115 0 -175 l8 -48 -140 0 -141
0 0 135 0 135 141 0 140 0 -8 -47z m-1259 -455 c-3 -42 17 -117 41 -152 l24
-35 -93 -98 -92 -97 -47 66 c-26 36 -57 92 -68 125 -26 73 -35 200 -20 275
l12 56 122 -58 c107 -51 122 -61 121 -82z m-1307 -550 c161 -161 293 -300 293
-308 0 -20 -580 -600 -600 -600 -20 0 -600 581 -600 600 0 20 581 600 600 600
8 0 147 -132 307 -292z m1647 109 l140 -134 -110 -75 c-80 -56 -113 -74 -124
-67 -8 5 -68 60 -134 122 l-118 113 88 95 c66 71 93 93 104 87 8 -4 78 -68
154 -141z m334 -352 c24 -45 27 -61 27 -150 0 -91 -3 -105 -29 -157 -55 -108
-49 -109 -189 30 l-122 122 1 55 2 56 113 79 114 79 28 -32 c16 -18 41 -54 55
-82z m-838 -375 l0 -130 -200 0 -200 0 0 130 0 130 200 0 200 0 0 -130z m514
11 c88 -89 115 -121 105 -127 -8 -5 -116 -10 -241 -12 l-228 -4 0 131 0 131
123 0 122 0 119 -119z m-1424 -316 l0 -315 -85 0 -85 0 0 237 0 238 77 77 c43
43 81 78 85 78 5 0 8 -142 8 -315z m600 -484 c6 -13 10 -163 10 -420 0 -350
-2 -402 -16 -415 -13 -14 -66 -16 -424 -16 -358 0 -411 2 -424 16 -14 13 -16
65 -16 415 0 257 4 407 10 420 10 18 26 19 430 19 404 0 420 -1 430 -19z"/>
<path d="M3787 1970 c-46 -14 -93 -56 -116 -103 -19 -39 -21 -61 -21 -209 0
-153 2 -168 23 -209 16 -29 40 -54 72 -74 l48 -30 171 0 c159 0 174 2 214 23
27 14 54 41 73 69 l29 47 0 173 c0 188 -7 219 -62 270 -48 45 -87 53 -250 52
-84 0 -166 -5 -181 -9z m324 -150 c17 -10 19 -23 19 -160 0 -137 -2 -150 -19
-160 -11 -5 -77 -10 -147 -10 -171 0 -164 -7 -164 171 0 112 3 141 16 153 12
13 41 16 145 16 72 0 139 -5 150 -10z"/>
<path d="M712 2164 c-51 -35 -48 -109 4 -133 38 -17 53 -14 85 18 36 36 37 73
4 106 -28 29 -61 32 -93 9z"/>
<path d="M1540 765 c-27 -29 -29 -78 -4 -106 42 -46 134 -5 134 61 0 66 -83
95 -130 45z"/>
<path d="M1310 523 c-83 -30 -76 -153 9 -153 92 0 114 130 26 153 -11 3 -27 3
-35 0z"/>
</g>
</svg>
