<?xml version="1.0" standalone="no"?>
<!DOCTYPE svg PUBLIC "-//W3C//DTD SVG 20010904//EN"
 "http://www.w3.org/TR/2001/REC-SVG-20010904/DTD/svg10.dtd">
<svg version="1.0" xmlns="http://www.w3.org/2000/svg"
 width="512.000000pt" height="512.000000pt" viewBox="0 0 512.000000 512.000000"
 preserveAspectRatio="xMidYMid meet">

<g transform="translate(0.000000,512.000000) scale(0.100000,-0.100000)"
fill="#000000" stroke="none">
<path d="M2305 5110 c-264 -27 -621 -119 -700 -182 -49 -38 -22 -128 40 -128
13 0 58 13 99 30 475 188 1151 185 1749 -10 341 -111 598 -261 812 -475 223
-222 350 -457 412 -762 26 -129 26 -619 -1 -778 -60 -361 -173 -552 -537 -915
-208 -207 -218 -225 -227 -398 -8 -176 33 -387 132 -682 26 -74 46 -143 46
-153 0 -36 -33 -89 -65 -104 -18 -9 -121 -39 -230 -67 -175 -45 -200 -54 -218
-78 -25 -34 -16 -70 24 -100 l26 -20 219 57 c125 32 237 67 261 81 72 42 122
124 130 213 5 48 -2 76 -45 206 -99 292 -137 480 -130 638 6 121 21 150 146
264 55 51 144 142 198 203 342 385 444 678 444 1279 0 292 -29 466 -113 679
-249 636 -913 1066 -1832 1187 -143 19 -513 27 -640 15z"/>
<path d="M1247 4730 c-174 -128 -332 -315 -429 -505 -93 -182 -134 -329 -162
-577 -12 -109 -21 -141 -57 -225 -23 -54 -46 -115 -50 -135 -14 -58 6 -123 66
-225 30 -50 55 -103 55 -118 0 -60 -116 -201 -275 -333 -49 -41 -106 -96 -125
-124 -30 -42 -35 -59 -38 -119 -8 -134 54 -217 206 -279 45 -19 82 -39 82 -45
0 -7 -36 -45 -80 -86 l-80 -75 0 -52 c0 -66 17 -99 77 -151 l48 -40 -20 -33
c-28 -47 -28 -156 1 -194 22 -29 26 -33 92 -60 32 -13 41 -21 36 -33 -51 -121
-61 -183 -44 -267 35 -169 141 -282 321 -339 142 -44 208 -43 647 15 180 24
250 18 349 -30 148 -72 254 -216 392 -528 42 -96 126 -159 225 -169 55 -6 59
-5 645 147 129 33 245 67 258 75 17 12 23 25 23 54 0 38 -16 61 -52 74 -9 3
-201 -41 -425 -99 -289 -75 -418 -104 -442 -100 -46 7 -85 47 -112 115 -103
261 -261 467 -426 554 -147 77 -251 85 -553 44 -341 -47 -427 -44 -548 17
-143 72 -197 223 -127 356 55 107 30 188 -75 237 -32 15 -59 34 -59 41 -1 8
12 26 27 40 70 65 61 104 -43 200 l-67 61 33 28 c188 158 171 310 -41 379 -77
24 -120 69 -120 124 0 48 19 70 170 199 92 78 187 189 234 274 30 53 36 74 36
123 0 54 -5 69 -51 149 -86 148 -84 143 -48 228 56 129 69 180 85 312 30 256
87 437 190 602 99 157 189 255 334 365 36 27 71 60 78 74 25 47 -12 104 -68
104 -14 0 -54 -22 -93 -50z"/>
<path d="M1954 4526 c-91 -42 -134 -117 -134 -235 l0 -61 -150 0 c-169 0 -197
-8 -230 -63 -18 -28 -20 -51 -20 -205 0 -250 15 -273 177 -280 73 -3 96 -8
112 -23 46 -43 34 -110 -24 -134 -19 -9 -66 -15 -108 -15 -82 0 -114 -16 -142
-70 -21 -42 -22 -757 -1 -798 29 -56 50 -66 158 -72 94 -6 102 -8 124 -34 32
-37 30 -71 -5 -107 -28 -27 -35 -29 -108 -29 -93 0 -139 -20 -165 -71 -15 -29
-18 -62 -18 -209 0 -156 2 -178 20 -207 34 -57 59 -63 250 -63 247 0 269 14
279 178 6 87 8 96 34 118 35 30 68 30 103 0 26 -22 28 -30 34 -124 5 -80 10
-105 25 -123 45 -48 50 -49 448 -49 373 0 374 0 408 23 47 32 59 61 59 147 0
41 6 86 13 100 28 55 94 64 137 18 17 -18 20 -35 20 -103 0 -95 19 -139 71
-167 29 -15 58 -18 209 -18 156 0 178 2 207 20 55 33 63 61 63 228 l0 150 78
3 c66 3 86 9 128 34 122 76 149 237 57 345 -49 56 -101 81 -189 87 l-74 6 0
317 0 317 74 6 c88 6 140 31 189 87 42 49 62 114 54 175 -18 128 -111 204
-249 205 l-68 0 0 150 c0 169 -8 197 -63 230 -28 18 -51 20 -184 20 l-153 0 0
61 c0 118 -43 193 -134 235 -116 54 -247 7 -308 -110 -12 -23 -22 -68 -25
-112 l-6 -74 -317 0 -317 0 -5 73 c-3 45 -12 87 -26 112 -61 118 -191 165
-308 111z m153 -150 c26 -22 28 -30 33 -124 4 -81 9 -104 25 -122 40 -44 66
-50 225 -50 l150 0 0 -161 0 -162 34 -32 c39 -36 70 -45 161 -45 81 0 115 -23
115 -79 0 -27 -7 -44 -25 -61 -22 -21 -39 -25 -118 -30 -157 -9 -167 -24 -167
-240 l0 -150 -125 0 -125 0 0 48 c0 80 -26 149 -74 197 -53 52 -99 68 -182 63
-75 -5 -130 -37 -179 -107 -26 -37 -30 -53 -34 -122 l-3 -79 -124 0 -124 0 0
120 0 120 48 0 c116 0 211 58 252 152 44 103 5 221 -94 283 -42 25 -62 31
-128 34 l-78 3 0 124 0 124 146 0 c220 0 243 17 253 183 5 88 9 101 30 118 32
26 74 24 108 -5z m1118 -1 c23 -22 25 -32 25 -107 0 -98 18 -142 71 -170 28
-15 57 -18 181 -18 l147 0 3 -159 3 -160 29 -30 c36 -38 80 -51 167 -51 52 0
70 -4 87 -20 46 -43 37 -109 -18 -137 -14 -7 -61 -13 -106 -13 -67 0 -86 -4
-108 -21 -49 -39 -56 -66 -56 -224 l0 -145 -125 0 -125 0 0 68 c-1 145 -95
242 -236 242 -135 0 -234 -111 -234 -262 l0 -48 -120 0 -120 0 0 120 0 120 48
0 c152 0 262 100 262 236 0 70 -24 126 -71 171 -48 45 -98 63 -174 63 l-65 0
0 125 0 125 148 0 c211 0 232 16 242 179 5 86 8 95 33 117 37 31 81 31 112 -1z
m-1115 -1120 c21 -22 25 -39 30 -118 3 -51 11 -102 18 -114 23 -41 50 -48 217
-53 l160 -5 5 -160 c5 -167 12 -194 53 -217 12 -7 63 -15 114 -18 79 -5 96 -9
118 -30 34 -32 34 -82 0 -115 -21 -22 -33 -25 -100 -25 -86 0 -132 -15 -163
-55 -20 -26 -22 -39 -22 -186 l0 -159 -124 0 -123 0 -6 74 c-6 88 -31 140 -87
188 -156 134 -380 20 -380 -194 l0 -68 -125 0 -125 0 0 125 0 125 68 0 c78 0
132 21 180 70 89 88 95 217 15 310 -49 56 -101 81 -189 87 l-74 6 0 123 0 124
159 0 c147 0 160 2 186 22 39 31 55 77 55 161 0 60 4 79 21 101 28 36 86 36
119 1z m1119 -1 c17 -22 21 -41 21 -101 0 -84 16 -130 55 -161 26 -20 39 -22
186 -22 l159 0 0 -152 c0 -134 2 -157 20 -185 28 -47 67 -63 152 -63 40 0 84
-6 98 -13 55 -28 64 -94 18 -137 -18 -17 -35 -20 -103 -20 -95 0 -139 -19
-167 -71 -15 -28 -18 -57 -18 -181 l0 -148 -124 0 -124 0 -3 78 c-3 66 -9 86
-34 128 -58 93 -175 136 -271 99 -101 -38 -154 -115 -162 -232 l-5 -73 -118 0
-119 0 0 125 0 125 56 0 c77 0 126 17 175 59 54 46 79 100 79 175 0 140 -106
236 -262 236 l-48 0 0 125 0 125 150 0 c91 0 159 4 174 12 45 20 60 55 66 155
5 79 9 96 30 118 33 35 91 35 119 -1z"/>
</g>
</svg>
