<?xml version="1.0" standalone="no"?>
<!DOCTYPE svg PUBLIC "-//W3C//DTD SVG 20010904//EN"
 "http://www.w3.org/TR/2001/REC-SVG-20010904/DTD/svg10.dtd">
<svg version="1.0" xmlns="http://www.w3.org/2000/svg"
 width="512.000000pt" height="512.000000pt" viewBox="0 0 512.000000 512.000000"
 preserveAspectRatio="xMidYMid meet">

<g transform="translate(0.000000,512.000000) scale(0.100000,-0.100000)"
fill="#000000" stroke="none">
<path d="M1932 5104 c-128 -34 -205 -110 -307 -305 -75 -144 -118 -200 -175
-229 -20 -10 -112 -32 -205 -49 -206 -37 -267 -63 -348 -151 -101 -109 -121
-205 -88 -428 26 -176 26 -235 2 -289 -11 -24 -75 -100 -146 -175 -92 -97
-134 -150 -158 -198 -30 -60 -32 -72 -32 -170 0 -98 2 -109 32 -170 24 -48 65
-100 158 -197 73 -77 134 -150 145 -175 25 -55 25 -112 -1 -290 -33 -223 -13
-319 88 -428 80 -87 141 -114 346 -150 93 -17 186 -39 207 -50 21 -10 56 -40
79 -66 l40 -46 3 -652 3 -651 27 -50 c34 -64 88 -116 158 -151 47 -24 67 -28
135 -28 77 0 91 4 340 98 343 130 307 130 650 1 242 -92 265 -98 335 -99 61
-1 85 4 131 25 73 35 134 90 167 153 l27 51 3 405 c2 223 0 415 -3 428 -6 26
-57 52 -86 45 -10 -3 -26 -14 -36 -25 -17 -18 -18 -52 -23 -422 l-5 -403 -29
-37 c-33 -44 -103 -79 -149 -74 l-32 3 -3 476 -2 476 73 36 c98 48 148 105
226 252 75 142 109 193 153 230 44 37 56 41 245 75 99 17 187 39 219 54 72 33
154 112 189 183 47 97 52 157 27 334 -27 189 -27 241 -2 297 11 25 72 98 145
175 93 97 134 149 158 197 30 61 32 72 32 170 0 98 -2 110 -32 170 -24 48 -66
101 -158 198 -71 75 -135 151 -146 175 -24 54 -24 113 2 289 33 223 13 319
-89 429 -89 96 -143 117 -421 164 -164 28 -199 58 -306 265 -56 107 -83 148
-135 201 -87 88 -147 113 -280 113 l-95 1 -180 -85 c-174 -82 -182 -85 -250
-84 -66 1 -78 5 -226 77 -85 42 -175 81 -200 86 -60 14 -134 12 -197 -5z m334
-216 c178 -86 215 -98 294 -98 80 0 117 12 295 98 153 74 162 77 230 77 81 -1
134 -23 181 -77 17 -19 65 -101 109 -182 128 -242 178 -278 446 -327 90 -16
178 -34 195 -39 44 -15 111 -75 135 -121 31 -61 33 -113 9 -274 -43 -291 -27
-342 169 -552 144 -155 171 -199 171 -283 0 -84 -26 -127 -170 -281 -197 -209
-213 -262 -170 -554 12 -84 19 -169 16 -193 -10 -75 -54 -140 -128 -186 -15
-10 -109 -32 -211 -51 -126 -23 -200 -41 -234 -58 -79 -41 -160 -137 -233
-279 -74 -145 -107 -190 -163 -223 -92 -53 -175 -41 -364 54 -245 122 -321
122 -563 1 -118 -59 -204 -90 -249 -90 -104 0 -181 69 -276 248 -84 157 -125
213 -190 257 -67 46 -111 60 -283 90 -81 14 -161 30 -178 36 -43 14 -111 74
-135 120 -31 61 -33 113 -9 274 43 292 27 345 -170 554 -144 154 -170 197
-170 281 0 84 27 128 169 280 198 213 214 264 171 555 -12 84 -19 169 -16 193
13 95 89 181 181 206 27 8 114 25 193 39 245 43 301 85 427 323 44 81 92 163
109 182 50 57 114 83 197 79 46 -3 84 -17 215 -79z m419 -3637 l45 -20 0 -454
0 -455 -37 14 c-50 17 -198 18 -256 0 l-47 -14 0 454 0 453 23 12 c78 43 189
47 272 10z m-809 -113 l64 -30 -2 -476 -3 -477 -24 -3 c-68 -10 -150 39 -177
105 -11 26 -14 132 -14 514 l0 482 46 -43 c25 -23 74 -55 110 -72z m364 -427
c0 -242 -4 -442 -8 -445 -4 -2 -38 -16 -75 -30 l-67 -25 0 449 0 450 23 1 c12
0 42 8 67 19 25 10 48 18 53 19 4 1 7 -197 7 -438z m698 419 c29 -11 61 -20
72 -20 20 0 20 -7 20 -450 l0 -449 -67 25 c-37 14 -71 28 -75 30 -7 5 -12 884
-5 884 1 0 26 -9 55 -20z"/>
<path d="M2345 4485 c-300 -49 -546 -176 -765 -395 -164 -163 -259 -314 -334
-528 -31 -89 -66 -237 -66 -279 0 -24 47 -63 78 -63 43 0 68 35 82 115 44 245
162 467 345 650 109 109 200 175 334 240 443 218 987 144 1361 -184 l45 -40
-56 -57 -57 -56 -65 55 c-269 228 -663 307 -1002 200 -173 -54 -298 -128 -428
-252 -385 -368 -448 -934 -152 -1386 50 -77 213 -240 290 -290 283 -185 625
-234 935 -133 90 29 242 108 321 168 264 198 429 526 429 851 0 82 -18 109
-74 109 -54 0 -76 -35 -76 -124 0 -39 -9 -112 -19 -161 -71 -347 -334 -623
-682 -717 -121 -33 -337 -33 -458 0 -332 90 -582 339 -673 670 -31 111 -31
353 0 465 90 328 345 583 667 668 120 32 294 36 415 11 156 -32 312 -106 415
-197 l50 -44 -322 -323 -323 -323 -148 147 c-88 88 -163 153 -185 163 -47 19
-137 19 -185 -1 -119 -49 -175 -194 -121 -314 29 -64 464 -501 533 -535 59
-30 146 -34 204 -10 25 11 193 171 539 517 l501 501 16 -37 c20 -47 50 -153
67 -231 18 -81 18 -360 0 -450 -49 -250 -172 -478 -351 -655 -156 -155 -349
-265 -567 -322 -112 -30 -128 -31 -303 -31 -175 0 -191 1 -303 31 -466 123
-813 486 -912 953 -13 62 -31 119 -41 130 -25 28 -75 25 -104 -6 -23 -25 -23
-27 -11 -107 15 -100 76 -289 124 -385 65 -129 157 -255 266 -363 203 -203
431 -325 722 -387 118 -25 400 -25 518 0 291 62 519 185 722 387 399 398 517
980 305 1507 -29 73 -31 84 -18 95 48 40 69 178 39 250 -46 109 -180 167 -295
127 -30 -10 -35 -8 -99 49 -175 154 -398 264 -643 317 -107 23 -371 28 -485
10z m1357 -529 c23 -17 36 -53 30 -85 -3 -18 -177 -199 -566 -588 -554 -556
-562 -563 -601 -563 -39 0 -47 7 -277 237 -215 215 -238 241 -238 271 0 46 38
82 86 82 35 0 49 -11 213 -174 97 -95 184 -176 194 -179 10 -4 32 -1 50 7 18
8 249 231 527 510 467 468 497 496 530 496 19 0 43 -7 52 -14z"/>
<path d="M4520 1550 c-30 -30 -27 -83 6 -109 35 -28 69 -26 99 4 30 30 32 64
4 99 -26 33 -79 36 -109 6z"/>
<path d="M4286 939 c-23 -18 -26 -28 -26 -80 l0 -59 -54 0 c-70 0 -110 -29
-108 -80 1 -48 23 -64 95 -70 l62 -5 5 -62 c6 -72 24 -96 71 -96 50 0 79 40
79 109 l0 54 58 0 c48 0 62 4 80 23 27 28 28 67 3 98 -14 18 -31 23 -78 27
l-61 4 -4 61 c-4 47 -9 64 -27 78 -30 25 -62 24 -95 -2z"/>
</g>
</svg>
