<?xml version="1.0" standalone="no"?>
<!DOCTYPE svg PUBLIC "-//W3C//DTD SVG 20010904//EN"
 "http://www.w3.org/TR/2001/REC-SVG-20010904/DTD/svg10.dtd">
<svg version="1.0" xmlns="http://www.w3.org/2000/svg"
 width="512.000000pt" height="512.000000pt" viewBox="0 0 512.000000 512.000000"
 preserveAspectRatio="xMidYMid meet">

<g transform="translate(0.000000,512.000000) scale(0.100000,-0.100000)"
fill="#000000" stroke="none">
<path d="M2512 5105 c-12 -9 -98 -123 -190 -253 -234 -330 -226 -315 -218
-356 10 -55 46 -76 127 -76 l69 0 0 -133 c0 -127 1 -135 23 -155 33 -31 80
-29 106 4 19 25 21 40 21 191 0 124 -4 171 -15 192 -15 29 -50 48 -98 53 -28
3 -27 5 93 173 66 94 125 170 130 170 6 0 64 -76 131 -170 119 -168 120 -170
92 -173 -48 -5 -83 -24 -98 -53 -11 -21 -15 -68 -15 -192 0 -151 2 -166 21
-191 27 -34 77 -36 107 -3 20 21 22 34 22 155 l0 132 69 0 c54 0 74 4 94 20
30 24 44 78 27 109 -28 53 -382 541 -402 555 -29 20 -67 20 -96 1z"/>
<path d="M732 4273 c-36 -31 -393 -544 -398 -573 -8 -39 19 -86 57 -99 18 -6
56 -11 85 -11 l54 0 0 -613 0 -614 23 -21 c31 -29 72 -28 103 3 l24 25 -2 661
-3 661 -28 24 c-19 17 -40 24 -68 24 -21 0 -39 3 -39 6 0 9 244 353 250 353 5
0 242 -335 248 -350 2 -5 -15 -9 -38 -9 -33 0 -48 -6 -71 -29 l-29 -29 0 -255
c0 -141 3 -263 6 -272 10 -24 60 -46 89 -39 51 13 55 31 55 261 l0 213 56 0
c31 0 71 7 89 16 37 17 60 61 51 98 -6 26 -367 541 -398 569 -12 10 -36 17
-58 17 -22 0 -46 -7 -58 -17z"/>
<path d="M4272 4273 c-31 -28 -392 -543 -398 -569 -9 -37 14 -81 51 -98 18 -9
58 -16 89 -16 l56 0 0 -213 c0 -230 4 -248 55 -261 29 -7 79 15 89 39 3 9 6
131 6 272 l0 255 -29 29 c-23 23 -38 29 -71 29 -23 0 -40 4 -38 9 6 16 243
350 248 350 6 0 250 -344 250 -353 0 -3 -18 -6 -39 -6 -28 0 -49 -7 -68 -24
l-28 -24 -3 -661 -2 -661 24 -25 c32 -32 75 -33 104 -2 l22 23 0 612 0 612 54
0 c29 0 67 5 85 11 38 13 65 60 57 99 -5 29 -362 542 -398 573 -12 10 -36 17
-58 17 -22 0 -46 -7 -58 -17z"/>
<path d="M2503 4047 c-30 -11 -468 -343 -520 -394 -30 -29 -30 -73 0 -101 47
-45 64 -36 327 168 134 105 250 188 256 186 7 -3 284 -216 616 -473 331 -258
658 -512 725 -563 l123 -95 0 -133 c0 -104 -3 -131 -12 -125 -7 4 -303 233
-658 508 -835 649 -748 585 -801 585 -44 0 -60 -12 -753 -550 -390 -303 -710
-550 -712 -550 -2 0 -4 60 -4 133 l1 132 336 260 c422 326 403 309 403 349 0
39 -35 76 -72 76 -29 0 -45 -11 -488 -357 -167 -131 -310 -249 -317 -263 -19
-38 -18 -409 1 -455 19 -44 66 -69 118 -62 l38 5 0 -119 0 -118 -410 -3 -410
-3 -29 -30 c-29 -30 -212 -356 -232 -414 -13 -37 2 -89 32 -117 12 -11 42 -21
72 -24 l52 -5 5 -716 c5 -777 2 -734 61 -765 21 -10 69 -14 192 -14 158 0 164
1 185 23 29 31 29 77 -1 105 -21 20 -34 22 -155 22 l-132 0 0 145 0 145 188 1
c211 0 245 7 279 58 22 33 23 40 23 293 0 374 13 358 -290 358 l-200 0 0 175
0 175 385 0 385 0 0 -675 0 -675 -101 0 c-112 0 -132 -7 -147 -48 -12 -34 6
-85 33 -96 9 -3 901 -6 1982 -6 1769 0 1968 2 1998 16 67 32 65 6 65 783 l0
701 44 0 c77 0 131 71 107 141 -20 58 -203 384 -232 414 l-29 30 -410 3 -410
3 0 118 0 119 38 -5 c52 -7 99 18 118 64 12 28 14 77 12 244 l-3 209 -35 34
c-50 47 -1468 1147 -1503 1164 -40 20 -96 24 -134 9z m717 -1104 l640 -496 0
-789 c0 -775 0 -788 20 -808 27 -27 81 -26 106 1 18 20 19 43 22 335 l3 314
389 0 390 0 0 -175 0 -175 -205 0 c-309 0 -295 17 -295 -358 0 -253 1 -260 23
-293 34 -51 67 -58 285 -58 l192 -1 0 -145 0 -145 -389 0 -390 0 -3 215 c-3
205 -4 215 -25 236 -27 27 -75 29 -103 4 -19 -17 -20 -30 -20 -237 l0 -218
-705 0 -705 0 0 621 0 621 -29 29 -29 29 -430 0 -430 0 -31 -26 -31 -26 0
-624 0 -624 -105 0 -105 0 0 1148 0 1148 647 503 c367 285 652 500 660 497 7
-3 301 -229 653 -503z m-2110 -1148 l0 -145 -456 0 c-250 0 -453 3 -451 8 2 4
32 59 67 122 34 63 69 125 76 138 l14 22 375 0 375 0 0 -145z m3685 85 c17
-30 52 -94 78 -142 l48 -88 -455 0 -456 0 0 145 0 145 377 -2 377 -3 31 -55z
m-2495 -830 l0 -250 -110 0 c-97 0 -112 -2 -130 -20 -30 -30 -27 -83 6 -109
23 -18 41 -21 130 -21 l104 0 0 -250 0 -250 -340 0 -340 0 0 575 0 575 340 0
340 0 0 -250z m-1622 -252 l-3 -203 -167 -3 -168 -2 0 205 0 205 170 0 170 0
-2 -202z m4110 0 l-3 -203 -170 0 -170 0 -3 203 -2 202 175 0 175 0 -2 -202z"/>
<path d="M1925 2670 c-22 -12 -123 -85 -225 -163 -245 -188 -230 -158 -230
-470 0 -265 4 -287 64 -330 31 -22 33 -22 431 -22 l400 0 34 24 c60 43 61 50
61 478 0 427 -1 431 -63 477 -26 19 -44 21 -230 24 -188 2 -205 1 -242 -18z
m385 -485 l0 -356 -137 3 -138 3 -3 340 c-1 187 0 346 3 352 3 10 40 13 140
13 l135 0 0 -355z m-430 -45 l0 -310 -130 0 -130 0 0 214 0 213 128 97 c70 53
128 96 130 96 1 0 2 -139 2 -310z"/>
<path d="M2755 2676 c-17 -7 -43 -28 -58 -45 l-27 -33 0 -413 0 -413 27 -33
c49 -58 56 -59 463 -59 407 0 414 1 463 59 l27 33 0 261 c0 254 -1 263 -23
299 -25 42 -364 308 -432 339 -34 16 -66 19 -225 18 -132 0 -194 -4 -215 -13z
m335 -279 c4 -122 7 -140 24 -153 11 -8 31 -14 44 -14 60 0 82 42 82 156 l0
73 128 -97 127 -98 3 -217 2 -217 -128 0 -129 0 -5 77 c-5 68 -8 79 -32 100
-33 28 -56 29 -89 3 -24 -19 -26 -29 -29 -98 l-3 -77 -132 -3 -133 -3 0 356 0
356 133 -3 132 -3 5 -138z"/>
<path d="M2741 1433 c-18 -9 -42 -31 -52 -47 -18 -29 -19 -58 -19 -436 0 -384
1 -407 20 -437 41 -68 42 -68 470 -68 428 0 429 0 470 68 19 30 20 53 20 437
0 379 -1 407 -19 436 -38 63 -48 64 -473 64 -337 0 -387 -2 -417 -17z m347
-485 l-3 -353 -132 -3 -133 -3 0 356 0 355 135 0 135 0 -2 -352z m412 -3 l0
-355 -130 0 -130 0 0 355 0 355 130 0 130 0 0 -355z"/>
</g>
</svg>
