<?xml version="1.0" standalone="no"?>
<!DOCTYPE svg PUBLIC "-//W3C//DTD SVG 20010904//EN"
 "http://www.w3.org/TR/2001/REC-SVG-20010904/DTD/svg10.dtd">
<svg version="1.0" xmlns="http://www.w3.org/2000/svg"
 width="512.000000pt" height="512.000000pt" viewBox="0 0 512.000000 512.000000"
 preserveAspectRatio="xMidYMid meet">

<g transform="translate(0.000000,512.000000) scale(0.100000,-0.100000)"
fill="#000000" stroke="none">
<path d="M2344 5105 c-214 -39 -388 -126 -543 -272 -53 -51 -71 -75 -71 -95 0
-40 10 -57 41 -74 26 -13 33 -13 63 1 19 9 37 22 39 29 10 25 154 132 233 173
168 88 375 123 526 89 117 -26 201 -72 334 -184 150 -126 199 -178 232 -250
31 -67 42 -186 20 -215 -13 -18 -448 -176 -558 -203 -30 -8 -89 -14 -131 -14
-64 0 -85 -5 -130 -28 -66 -34 -115 -101 -125 -170 -10 -72 -21 -92 -58 -107
-48 -20 -142 -4 -232 40 -174 85 -284 296 -271 522 5 82 3 95 -15 118 -27 34
-76 34 -109 -1 -23 -24 -24 -32 -24 -152 0 -105 4 -140 24 -202 62 -199 148
-316 300 -409 12 -8 9 -26 -15 -110 -27 -95 -31 -101 -59 -107 -50 -11 -118
-50 -157 -91 -51 -53 -528 -880 -528 -915 0 -59 85 -93 123 -50 9 10 124 205
256 433 270 469 272 471 376 477 53 4 70 0 105 -19 22 -13 50 -38 61 -56 12
-19 79 -204 150 -413 70 -208 139 -401 153 -428 40 -78 100 -129 305 -257 106
-65 195 -123 198 -128 7 -11 -117 -267 -129 -267 -23 0 -452 225 -505 264 -72
55 -145 146 -183 231 -15 33 -62 152 -105 265 -43 113 -87 215 -98 228 -29 32
-79 30 -106 -4 -12 -15 -21 -34 -21 -43 0 -9 40 -120 89 -246 102 -265 107
-277 139 -328 13 -22 21 -45 18 -53 -8 -21 -167 -244 -173 -244 -4 0 -27 13
-52 30 -77 49 -211 107 -299 130 -71 18 -263 39 -365 40 l-29 0 31 57 c17 31
31 69 31 85 0 58 -73 89 -118 51 -21 -18 -105 -179 -141 -270 -58 -148 -67
-362 -21 -508 50 -158 152 -309 272 -401 34 -27 118 -76 186 -110 l124 -60
-278 -50 -279 -50 -42 42 c-95 95 -257 100 -357 13 -46 -40 -382 -454 -417
-513 -11 -19 -23 -60 -26 -90 -11 -111 71 -215 185 -232 63 -9 191 22 422 104
l185 66 170 4 c157 3 171 5 192 24 33 30 31 80 -3 107 -24 19 -40 21 -186 21
l-158 0 -11 28 c-6 15 -9 67 -7 118 4 98 20 138 61 153 24 9 756 141 783 141
9 0 83 -31 165 -70 82 -39 162 -70 179 -70 60 0 92 72 52 116 -10 11 -142 77
-293 148 -151 71 -323 152 -384 181 -60 28 -138 73 -172 99 -190 144 -282 406
-227 648 l16 71 152 -7 c243 -12 381 -50 528 -146 82 -54 92 -64 183 -190 72
-100 266 -297 302 -306 38 -10 77 24 81 70 3 34 -3 43 -120 164 -68 71 -142
155 -164 188 -37 53 -40 62 -28 79 12 17 15 17 31 3 10 -8 191 -163 403 -343
212 -180 407 -348 433 -374 85 -81 84 -75 77 -328 l-5 -222 -40 -41 c-64 -65
-147 -101 -250 -108 l-87 -5 37 49 c74 96 115 219 115 344 -1 123 -64 288
-146 379 -38 42 -52 51 -79 51 -24 0 -39 -7 -54 -26 -30 -38 -26 -66 15 -115
198 -237 124 -574 -145 -659 -58 -18 -91 -20 -425 -20 -386 -1 -385 -1 -405
-51 -11 -30 8 -83 34 -93 27 -10 1167 -7 1226 4 30 5 93 29 141 53 l88 44 26
-34 c52 -68 74 -73 389 -73 251 0 284 2 320 19 48 22 79 54 100 103 12 31 15
87 15 317 l0 279 93 4 c82 3 99 6 135 31 23 15 52 46 64 70 22 41 23 50 23
333 l0 291 -30 48 c-43 69 -87 89 -201 93 l-92 4 -17 39 c-24 53 -114 135
-179 164 -30 13 -84 29 -120 36 -50 8 -67 15 -72 31 -21 68 -166 158 -254 158
-26 0 -63 -9 -84 -19 l-38 -20 -75 47 -75 46 83 13 c46 7 152 27 234 46 l150
34 21 -23 c53 -56 128 -69 249 -44 51 10 68 20 109 61 46 46 52 49 125 59 42
6 88 13 104 16 20 5 27 2 27 -8 0 -27 70 -96 113 -113 37 -14 83 -16 328 -13
l286 3 41 28 c23 15 52 46 64 70 22 41 23 50 23 332 0 331 -2 342 -84 400
l-43 30 -286 3 c-245 2 -293 1 -329 -13 -44 -17 -113 -86 -113 -113 0 -11 -8
-13 -32 -7 -79 16 -163 23 -216 15 -55 -7 -58 -7 -94 26 -21 18 -50 36 -65 39
-16 4 -36 8 -45 10 -37 7 -171 -24 -208 -49 -36 -24 -80 -94 -80 -128 0 -18
-11 -21 -205 -43 -175 -20 -169 -22 -390 116 -162 102 -166 105 -160 133 7 37
31 75 52 83 9 4 35 -4 57 -17 56 -32 181 -40 256 -15 64 21 361 240 390 288
31 50 35 94 17 182 -23 111 -21 161 13 305 16 69 30 137 30 153 0 16 5 27 13
27 33 0 99 63 124 117 23 50 25 64 20 142 -11 183 -72 283 -278 457 -77 65
-172 138 -210 160 -154 92 -352 124 -545 89z m691 -1155 c-29 -120 -31 -207
-9 -300 8 -36 13 -74 10 -86 -5 -19 -221 -188 -290 -226 -48 -26 -126 -23
-183 8 -64 34 -132 30 -199 -12 -45 -28 -71 -63 -97 -133 l-13 -34 -32 87
c-38 99 -96 167 -175 205 -35 17 -47 28 -44 40 3 9 13 44 23 79 17 61 18 63
47 56 52 -11 161 -7 197 8 77 33 131 101 145 183 10 61 24 91 48 103 12 6 66
13 119 15 87 5 118 12 285 70 122 42 189 60 191 53 1 -7 -9 -59 -23 -116z
m1559 -966 c14 -13 16 -52 16 -266 0 -220 -2 -254 -17 -270 -15 -17 -37 -18
-273 -18 -186 0 -259 3 -268 12 -17 17 -17 529 0 546 9 9 83 12 269 12 221 0
260 -2 273 -16z m-2054 -144 c195 -124 219 -129 461 -100 94 11 173 19 174 18
5 -6 45 -261 42 -264 -2 -2 -73 -20 -158 -39 -184 -43 -332 -60 -433 -50 -111
10 -123 26 -214 290 -89 260 -92 284 -23 241 20 -13 88 -56 151 -96z m975
-143 c45 -270 47 -259 -43 -275 -84 -15 -85 -15 -129 250 -29 173 -35 232 -27
245 6 11 34 23 65 29 90 19 88 23 134 -249z m325 164 l45 -17 3 -127 3 -128
-37 -15 c-46 -19 -146 -36 -156 -26 -6 6 -58 292 -58 320 0 25 125 20 200 -7z
m-705 -839 c31 -17 51 -34 52 -47 1 -11 -46 -114 -105 -230 -85 -167 -111
-211 -129 -213 -12 -2 -44 8 -72 23 -41 20 -51 30 -51 50 0 26 180 396 208
428 21 23 38 21 97 -11z m-692 -280 l237 -117 0 -33 c0 -75 55 -138 164 -188
72 -33 158 -31 206 5 30 22 32 22 75 5 l45 -17 0 -173 0 -174 -80 -2 c-44 -1
-91 -2 -104 -2 -16 -1 -35 13 -62 45 -22 26 -228 208 -459 404 -231 197 -429
366 -439 376 -19 18 -19 19 8 58 l28 40 71 -55 c48 -37 153 -95 310 -172z
m1008 96 c104 -44 147 -135 97 -207 -12 -19 -48 -48 -78 -65 -51 -29 -62 -31
-155 -31 -71 0 -108 4 -126 15 l-26 15 75 153 76 154 46 -7 c25 -4 66 -16 91
-27z m421 -235 c17 -15 18 -37 18 -269 0 -216 -2 -255 -16 -268 -13 -14 -52
-16 -273 -16 -186 0 -260 3 -269 12 -8 8 -12 59 -12 164 l0 151 59 6 c128 14
242 82 300 180 l34 57 70 0 c52 0 75 -4 89 -17z m-321 -713 c18 -10 19 -24 19
-273 0 -191 -3 -266 -12 -275 -9 -9 -83 -12 -269 -12 -221 0 -260 2 -273 16
-14 13 -16 52 -16 269 0 217 2 256 16 269 13 14 51 16 265 16 154 0 258 -4
270 -10z m-2868 -160 l26 -21 -24 -35 c-14 -20 -28 -52 -32 -73 -10 -47 -10
-224 -1 -277 l8 -42 -118 -41 c-157 -55 -309 -94 -338 -87 -32 8 -58 49 -50
80 7 27 315 419 377 479 32 31 45 37 82 37 29 0 53 -7 70 -20z"/>
<path d="M4156 4617 c-25 -25 -26 -31 -26 -137 0 -97 2 -112 20 -130 30 -30
83 -27 109 6 18 23 21 41 21 129 0 116 -11 140 -67 151 -26 5 -37 1 -57 -19z"/>
<path d="M3803 4260 c-45 -19 -57 -86 -23 -120 18 -18 33 -20 134 -20 112 0
115 1 135 26 26 33 27 65 2 95 -18 22 -27 24 -123 26 -56 2 -113 -2 -125 -7z"/>
<path d="M4383 4260 c-45 -19 -57 -86 -23 -120 18 -18 33 -20 134 -20 112 0
115 1 135 26 26 33 27 65 2 95 -18 22 -27 24 -123 26 -56 2 -113 -2 -125 -7z"/>
<path d="M4155 4035 c-24 -23 -25 -31 -25 -135 0 -97 2 -112 20 -130 30 -30
83 -27 109 6 18 23 21 41 21 131 0 97 -2 106 -25 128 -13 14 -36 25 -50 25
-14 0 -37 -11 -50 -25z"/>
<path d="M671 4024 c-18 -23 -21 -41 -21 -120 0 -103 10 -136 47 -153 34 -16
47 -14 77 10 25 20 26 23 26 133 0 134 -10 156 -70 156 -30 0 -43 -6 -59 -26z"/>
<path d="M301 3654 c-24 -30 -26 -43 -10 -78 18 -38 56 -48 162 -44 110 4 137
18 137 75 0 62 -24 73 -154 73 -112 0 -115 -1 -135 -26z"/>
<path d="M881 3654 c-24 -30 -26 -43 -10 -78 18 -38 56 -48 162 -44 110 4 137
18 137 75 0 62 -24 73 -154 73 -112 0 -115 -1 -135 -26z"/>
<path d="M671 3444 c-18 -23 -21 -41 -21 -120 0 -103 10 -136 47 -153 34 -16
47 -14 77 10 25 20 26 23 26 133 0 134 -10 156 -70 156 -30 0 -43 -6 -59 -26z"/>
<path d="M4377 1756 c-50 -18 -85 -51 -108 -101 -17 -36 -19 -69 -19 -320 0
-249 2 -284 19 -320 17 -39 17 -41 0 -80 -16 -35 -18 -72 -19 -320 0 -251 2
-284 19 -320 22 -48 54 -79 103 -100 55 -22 571 -22 626 0 49 21 81 52 103
100 17 36 19 69 19 320 0 258 -2 284 -19 319 -19 37 -19 38 0 79 17 38 19 68
19 322 0 272 -1 282 -22 325 -14 26 -41 57 -66 75 l-44 30 -286 2 c-226 2
-295 0 -325 -11z m577 -152 c14 -13 16 -52 16 -273 0 -186 -3 -260 -12 -269
-17 -17 -529 -17 -546 0 -9 9 -12 83 -12 269 0 221 2 260 16 273 13 14 52 16
269 16 217 0 256 -2 269 -16z m0 -720 c14 -13 16 -51 16 -265 0 -154 -4 -258
-10 -270 -10 -18 -24 -19 -273 -19 -191 0 -266 3 -275 12 -9 9 -12 84 -12 275
0 239 2 263 18 272 10 6 116 11 269 11 216 0 254 -2 267 -16z"/>
</g>
</svg>
