<?xml version="1.0" standalone="no"?>
<!DOCTYPE svg PUBLIC "-//W3C//DTD SVG 20010904//EN"
 "http://www.w3.org/TR/2001/REC-SVG-20010904/DTD/svg10.dtd">
<svg version="1.0" xmlns="http://www.w3.org/2000/svg"
 width="512.000000pt" height="512.000000pt" viewBox="0 0 512.000000 512.000000"
 preserveAspectRatio="xMidYMid meet">

<g transform="translate(0.000000,512.000000) scale(0.100000,-0.100000)"
fill="#000000" stroke="none">
<path d="M2460 5104 c-187 -50 -305 -232 -273 -420 13 -73 53 -161 89 -195 13
-13 24 -26 24 -31 0 -4 -18 -17 -39 -28 -50 -25 -153 -120 -192 -177 -17 -24
-34 -41 -39 -38 -5 3 4 24 20 47 87 120 76 289 -26 398 -180 192 -493 102
-544 -156 -16 -79 -1 -152 46 -229 19 -32 33 -59 32 -60 -2 -1 -19 -11 -39
-23 -62 -37 -138 -127 -177 -210 l-37 -77 -3 -273 -3 -273 39 -39 40 -40 515
0 516 0 20 26 c36 46 22 93 -33 114 -15 5 -86 10 -157 10 l-129 0 0 248 c0
136 5 274 10 307 28 170 160 317 325 359 227 60 458 -66 536 -291 17 -50 19
-85 19 -340 l0 -283 -134 0 c-148 0 -188 -9 -205 -46 -16 -35 -14 -47 10 -78
l20 -26 517 0 c495 0 518 1 549 20 59 36 63 55 63 304 0 126 -5 248 -11 278
-25 118 -110 245 -204 305 -50 31 -54 42 -25 68 50 45 76 190 51 283 -25 91
-122 188 -213 213 -111 29 -234 -1 -311 -76 -63 -63 -91 -124 -95 -212 -5 -81
8 -129 49 -191 16 -24 29 -47 29 -53 0 -20 -16 -7 -43 36 -35 55 -122 136
-186 172 l-49 27 39 51 c113 150 112 331 -2 477 -62 77 -193 139 -294 137 -22
0 -65 -7 -95 -15z m215 -169 c174 -102 132 -368 -66 -415 -178 -43 -334 144
-258 310 27 60 54 88 114 117 65 31 144 27 210 -12z m-786 -352 c51 -38 66
-70 66 -137 0 -54 -4 -68 -29 -100 -69 -91 -211 -88 -273 5 -67 101 -12 239
104 258 47 9 99 -2 132 -26z m1536 -1 c72 -61 88 -162 37 -231 -73 -100 -209
-95 -279 8 -46 68 -21 185 50 226 61 36 147 35 192 -3z m-1496 -488 c50 -22
53 -26 46 -51 -4 -16 -9 -160 -12 -320 l-5 -293 -254 0 -254 0 0 210 c0 186 2
215 20 264 68 181 281 269 459 190z m1511 10 c63 -20 136 -77 171 -132 51 -81
59 -125 59 -344 l0 -198 -254 0 -253 0 -7 288 c-3 158 -7 303 -9 322 -2 31 2
37 35 53 77 38 165 42 258 11z"/>
<path d="M400 4191 c-88 -29 -163 -92 -202 -170 l-23 -46 0 -460 c0 -415 2
-467 18 -530 38 -143 92 -230 426 -690 381 -523 432 -613 492 -860 30 -127 30
-127 -44 -140 -20 -3 -53 -19 -72 -36 -66 -58 -66 -56 -63 -625 l3 -510 27
-41 c16 -24 44 -49 70 -62 44 -21 51 -21 741 -21 607 0 702 2 743 16 42 14 49
14 85 0 35 -14 126 -16 739 -16 469 0 708 3 727 11 15 5 41 22 56 37 49 46 61
79 61 173 1 102 -14 129 -71 129 -52 0 -73 -28 -73 -101 0 -110 78 -99 -705
-99 -666 0 -685 1 -695 19 -6 12 -10 128 -10 305 l0 286 705 0 705 0 0 -80 c0
-67 3 -83 20 -100 27 -27 81 -26 106 1 17 19 19 42 22 273 4 299 -2 340 -58
396 -26 26 -52 41 -77 45 -71 12 -73 13 -67 48 13 74 56 222 86 298 50 128
115 227 417 643 373 513 387 534 434 701 18 63 20 110 24 480 5 435 1 491 -39
572 -79 157 -307 212 -444 108 l-36 -27 -55 17 c-110 35 -234 5 -311 -75 -65
-67 -86 -120 -86 -215 0 -77 5 -93 126 -435 70 -195 129 -362 132 -370 3 -9
-10 -33 -33 -59 l-38 -44 -24 48 c-31 63 -86 118 -151 152 -46 24 -64 28 -143
28 -159 0 -127 25 -686 -550 -461 -475 -439 -427 -439 -957 l0 -346 -52 -7
c-29 -4 -65 -14 -80 -21 -24 -13 -32 -13 -55 0 -16 7 -51 17 -80 21 l-51 7 -5
366 c-6 508 11 469 -357 851 -513 534 -578 597 -643 620 -158 58 -331 -6 -412
-152 l-32 -58 -37 41 c-20 22 -36 44 -36 49 0 4 59 174 132 377 119 335 131
375 132 439 1 83 -22 140 -80 205 -79 87 -212 122 -323 85 -46 -15 -54 -15
-69 -2 -42 36 -108 60 -177 63 -38 2 -81 0 -95 -5z m168 -168 c14 -10 35 -32
46 -47 20 -26 21 -43 26 -459 4 -377 7 -436 22 -462 50 -91 792 -911 834 -921
56 -14 104 43 81 95 -6 16 -100 125 -208 243 -108 117 -210 229 -227 248 -77
90 -58 217 43 275 50 30 118 33 170 8 21 -10 192 -179 429 -424 417 -432 434
-453 456 -568 5 -29 10 -199 10 -377 l0 -324 -481 2 -482 3 -22 110 c-36 179
-95 332 -185 479 -27 45 -186 270 -354 500 -167 231 -318 447 -334 481 -64
130 -65 141 -69 595 -3 228 -2 429 2 447 7 40 49 91 90 109 40 19 120 12 153
-13z m4160 0 c15 -11 36 -35 47 -54 19 -33 20 -52 20 -459 0 -473 -2 -483 -71
-625 -19 -38 -178 -268 -354 -510 -318 -437 -383 -540 -448 -705 -28 -70 -73
-237 -87 -322 l-6 -38 -480 0 -480 0 3 363 3 362 32 67 c35 73 23 61 548 602
165 170 293 294 312 302 39 17 101 18 140 3 34 -13 80 -55 99 -91 16 -32 18
-105 4 -144 -10 -26 -110 -140 -355 -404 -63 -69 -118 -135 -121 -148 -14 -51
37 -101 89 -88 43 10 778 827 830 921 21 39 22 51 27 467 5 413 6 427 26 455
40 54 83 75 142 71 32 -3 64 -13 80 -25z m-3799 -52 c40 -29 64 -76 64 -126 0
-26 -36 -142 -99 -320 l-99 -280 -5 360 c-3 198 -8 365 -13 372 -20 31 107 26
152 -6z m3402 -351 c-1 -206 -3 -376 -5 -377 -1 -1 -47 122 -101 275 -110 305
-119 355 -79 409 38 51 83 74 137 71 l49 -3 -1 -375z m-1853 -2592 l3 -118
-701 0 -700 0 0 104 c0 57 3 112 6 120 6 15 74 16 698 14 l691 -3 3 -117z
m1556 106 c3 -9 6 -63 6 -120 l0 -104 -705 0 -705 0 0 104 c0 57 3 111 6 120
6 14 76 16 699 16 623 0 693 -2 699 -16z m-1554 -673 c0 -263 -2 -300 -16
-305 -9 -3 -318 -6 -688 -6 -509 0 -675 3 -684 12 -9 9 -12 90 -12 305 l0 293
700 0 700 0 0 -299z"/>
</g>
</svg>
