<?xml version="1.0" standalone="no"?>
<!DOCTYPE svg PUBLIC "-//W3C//DTD SVG 20010904//EN"
 "http://www.w3.org/TR/2001/REC-SVG-20010904/DTD/svg10.dtd">
<svg version="1.0" xmlns="http://www.w3.org/2000/svg"
 width="512.000000pt" height="512.000000pt" viewBox="0 0 512.000000 512.000000"
 preserveAspectRatio="xMidYMid meet">

<g transform="translate(0.000000,512.000000) scale(0.100000,-0.100000)"
fill="#000000" stroke="none">
<path d="M2792 4856 l-37 -34 -3 -419 -3 -418 -56 -40 c-106 -76 -179 -186
-214 -323 -18 -70 -19 -114 -19 -614 l0 -539 -87 3 -88 3 -5 318 -5 319 -28
24 c-19 17 -40 24 -68 24 l-39 0 0 329 0 329 -25 30 c-31 37 -76 47 -120 26
-26 -12 -46 -38 -91 -122 l-59 -106 -14 39 c-35 94 -87 181 -120 203 -62 41
-155 21 -196 -41 -47 -72 -118 -292 -154 -477 -43 -218 -54 -338 -57 -620 l-3
-275 -317 -5 -316 -5 -29 -33 c-32 -35 -38 -81 -17 -127 6 -14 52 -56 102 -93
l90 -67 -224 -5 c-206 -5 -229 -7 -274 -28 -143 -65 -215 -177 -231 -359 -6
-69 -5 -74 19 -98 30 -30 65 -32 97 -6 18 14 25 36 35 106 17 115 49 168 123
207 l54 28 2157 -2 2157 -3 49 -30 c37 -23 55 -44 76 -85 26 -53 29 -76 73
-565 44 -488 45 -510 28 -523 -80 -60 -291 -133 -440 -153 -85 -11 -282 -7
-330 7 l-23 6 0 253 c0 140 -3 261 -6 270 -10 24 -60 46 -89 39 -53 -13 -55
-26 -55 -316 l0 -267 -67 -40 c-147 -87 -345 -154 -551 -187 -82 -13 -146 -15
-282 -11 -178 5 -256 17 -394 61 l-71 22 -5 373 -5 373 -28 24 c-35 30 -59 30
-94 0 l-28 -24 -5 -373 -5 -373 -71 -22 c-138 -44 -216 -56 -394 -61 -136 -4
-200 -2 -282 11 -206 33 -395 96 -547 185 l-71 42 0 268 c0 248 -1 271 -19
292 -13 17 -29 23 -56 23 -27 0 -43 -6 -56 -23 -17 -21 -19 -44 -19 -281 l0
-258 -22 -6 c-13 -4 -72 -9 -133 -13 -187 -10 -376 28 -540 107 -131 63 -120
21 -90 353 25 266 26 290 11 312 -29 44 -93 45 -121 2 -9 -15 -23 -118 -40
-311 -29 -315 -28 -337 20 -395 29 -33 187 -117 285 -151 182 -62 415 -84 594
-57 99 15 99 15 136 -8 124 -78 301 -152 465 -193 178 -45 288 -55 498 -49
193 6 303 25 466 81 l74 26 71 -26 c150 -55 268 -75 463 -81 210 -6 320 4 498
49 164 41 341 115 465 193 37 23 37 23 136 8 133 -20 322 -12 465 21 164 38
353 123 411 186 54 59 54 60 3 616 -25 280 -51 529 -56 552 -22 102 -106 203
-207 250 -49 22 -74 27 -180 30 -103 4 -124 7 -129 21 -49 146 -137 234 -285
284 -16 6 -18 21 -18 131 l0 124 33 7 c119 26 217 148 217 270 0 70 -69 495
-86 527 -25 49 -64 58 -239 58 -245 0 -235 11 -286 -326 -35 -223 -38 -264
-29 -309 21 -102 99 -188 195 -215 l45 -13 0 -128 c0 -116 -2 -129 -17 -129
-29 -1 -104 -38 -150 -76 -54 -44 -95 -104 -119 -171 l-19 -53 -77 0 -78 0 0
450 0 451 -25 24 c-31 32 -74 33 -103 2 -19 -20 -22 -36 -24 -131 l-3 -109
-65 -22 c-36 -13 -128 -45 -205 -72 l-141 -50 -204 72 -205 73 -3 341 -2 341
412 -2 413 -3 5 -88 c4 -78 8 -91 29 -108 27 -22 41 -23 74 -8 36 17 47 50 47
147 -1 214 -76 376 -225 489 l-64 48 -1 403 c0 437 0 437 -56 481 -25 20 -39
21 -220 21 l-194 0 -38 -34z m358 -266 l0 -150 -125 0 -125 0 0 150 0 150 125
0 125 0 0 -150z m0 -462 c0 -194 10 -224 86 -280 72 -54 164 -154 164 -180 0
-5 -169 -8 -375 -8 -206 0 -375 3 -375 7 0 25 80 117 141 163 102 78 109 95
109 298 l0 162 125 0 125 0 0 -162z m-1451 -532 c23 -68 41 -133 41 -144 0
-11 -20 -62 -44 -115 -64 -137 -132 -310 -192 -487 l-53 -155 -1 95 c-1 305
68 694 163 914 26 62 32 55 86 -108z m290 -273 l0 -268 -91 -65 c-49 -36 -124
-93 -167 -126 -42 -34 -77 -59 -79 -54 -3 9 52 161 112 310 46 111 216 470
223 470 1 0 3 -120 2 -267z m2251 78 c0 -5 14 -96 30 -201 35 -220 36 -240 15
-281 -27 -50 -69 -69 -158 -69 -99 0 -132 16 -158 76 l-20 44 31 208 c18 114
33 213 36 220 4 15 224 18 224 3z m-2110 -681 l0 -250 -300 0 c-167 0 -300 4
-300 9 0 11 97 101 215 202 81 68 372 289 381 289 2 0 4 -112 4 -250z m864
-181 c35 -9 60 -3 243 60 l203 69 0 -264 0 -264 -382 0 c-210 0 -378 4 -373 8
6 5 47 37 92 71 93 70 103 83 103 141 0 34 -6 48 -34 76 l-34 34 -101 0 -101
0 0 100 0 99 173 -60 c94 -34 190 -65 211 -70z m-450 -309 l-119 -89 -677 -1
-676 0 -116 86 c-64 47 -116 88 -116 90 0 2 410 4 912 4 l911 0 -119 -90z
m1657 58 c19 -6 47 -20 62 -31 29 -20 87 -93 87 -109 0 -4 -99 -8 -220 -8
-246 0 -241 -2 -191 67 55 76 171 112 262 81z"/>
</g>
</svg>
