<?xml version="1.0" standalone="no"?>
<!DOCTYPE svg PUBLIC "-//W3C//DTD SVG 20010904//EN"
 "http://www.w3.org/TR/2001/REC-SVG-20010904/DTD/svg10.dtd">
<svg version="1.0" xmlns="http://www.w3.org/2000/svg"
 width="512.000000pt" height="512.000000pt" viewBox="0 0 512.000000 512.000000"
 preserveAspectRatio="xMidYMid meet">

<g transform="translate(0.000000,512.000000) scale(0.100000,-0.100000)"
fill="#000000" stroke="none">
<path d="M2394 5106 c-339 -65 -603 -266 -745 -570 -66 -142 -81 -216 -86
-428 l-5 -187 -62 50 c-118 96 -234 139 -381 139 -169 0 -296 -52 -416 -170
-61 -60 -85 -92 -117 -160 -22 -47 -45 -112 -51 -144 -6 -33 -11 -162 -11
-286 0 -194 3 -238 20 -305 35 -136 113 -250 226 -331 l64 -46 0 -72 0 -73
-223 -67 c-282 -85 -331 -108 -428 -205 -127 -127 -169 -231 -176 -436 -5
-133 -4 -141 17 -167 29 -38 80 -39 109 -2 18 23 21 41 21 133 0 168 32 261
127 362 62 66 131 99 362 169 202 61 220 63 221 27 0 -20 91 -103 135 -123 60
-29 149 -32 219 -8 53 18 142 100 152 139 3 14 9 25 12 25 3 0 45 -12 94 -27
l88 -26 0 -74 c0 -50 -4 -75 -12 -77 -149 -45 -193 -61 -247 -93 -83 -49 -185
-151 -234 -234 -21 -35 -49 -100 -64 -144 -24 -74 -27 -96 -31 -287 l-4 -208
-164 0 -164 0 0 136 c0 76 -5 144 -11 155 -25 48 -105 44 -128 -7 -6 -14 -11
-80 -11 -154 l0 -130 -170 0 -170 0 0 84 c0 102 -16 130 -75 130 -65 0 -75
-23 -75 -179 0 -116 2 -136 19 -156 l19 -24 466 -3 466 -3 0 -218 c0 -214 0
-218 23 -239 23 -22 27 -22 408 -22 l385 0 24 -57 c138 -342 486 -550 842
-505 302 38 545 224 658 505 l24 57 386 0 387 0 21 23 c21 22 22 31 22 240 l0
216 466 3 466 3 19 24 c17 20 19 40 19 156 0 156 -10 179 -75 179 -59 0 -75
-28 -75 -130 l0 -84 -170 0 -170 0 0 130 c0 74 -5 140 -11 154 -23 51 -103 55
-128 7 -6 -11 -11 -79 -11 -155 l0 -136 -164 0 -164 0 -4 208 c-4 191 -7 213
-31 287 -15 44 -43 109 -64 144 -49 81 -152 185 -234 234 -54 32 -98 48 -246
93 -9 2 -13 27 -13 77 l0 74 88 26 c49 15 91 27 94 27 3 0 9 -11 12 -25 10
-39 99 -121 152 -139 70 -24 159 -21 219 8 44 20 135 103 135 123 1 36 19 34
221 -27 230 -69 299 -102 362 -169 95 -101 127 -194 127 -362 0 -92 3 -110 21
-133 28 -36 80 -36 108 0 18 23 21 41 21 139 0 191 -48 328 -157 446 -106 114
-162 140 -545 255 l-128 38 0 72 0 72 64 46 c113 81 191 195 226 331 17 67 20
111 20 305 0 124 -5 253 -11 286 -6 32 -29 97 -51 144 -32 68 -56 100 -117
160 -119 118 -248 170 -417 170 -146 0 -262 -43 -380 -139 l-62 -50 -5 187
c-3 152 -8 202 -26 267 -97 348 -373 622 -717 711 -122 32 -312 41 -420 20z
m296 -146 c299 -48 551 -250 664 -534 45 -112 56 -185 56 -378 l0 -177 -32 10
c-43 12 -210 12 -242 -1 -15 -5 -31 -20 -37 -34 l-11 -23 -58 30 c-45 22 -76
31 -132 34 -40 2 -85 9 -100 15 -16 6 -60 54 -110 119 -49 65 -92 112 -105
115 -46 12 -68 -5 -151 -115 -50 -65 -94 -113 -110 -119 -15 -6 -60 -13 -100
-15 -56 -3 -87 -12 -132 -34 l-58 -30 -11 23 c-6 14 -22 29 -37 34 -33 13
-199 13 -243 0 l-33 -9 4 207 c5 229 14 273 84 417 159 328 533 522 894 465z
m-1398 -1037 c111 -52 192 -140 239 -258 22 -57 23 -72 23 -300 1 -225 -1
-244 -22 -303 -43 -120 -113 -203 -219 -260 -220 -117 -492 -23 -602 207 l-36
76 -3 242 c-3 197 -1 253 13 304 37 145 139 255 286 310 43 15 74 19 154 16
88 -2 108 -6 167 -34z m2899 -1 c125 -60 212 -163 244 -290 14 -52 16 -108 13
-305 l-3 -242 -36 -76 c-87 -181 -278 -284 -469 -251 -171 29 -304 148 -357
317 -15 51 -18 94 -17 295 0 222 1 238 23 295 55 138 156 235 296 282 25 8 77
12 140 10 89 -3 107 -6 166 -35z m-1578 -47 c71 -97 142 -135 249 -135 89 0
119 -19 178 -110 l50 -79 0 -150 c0 -177 -9 -230 -58 -331 -129 -265 -460
-368 -726 -227 -88 46 -177 139 -219 228 -48 100 -57 155 -57 330 l0 150 50
79 c59 91 89 110 178 110 110 0 180 38 253 139 24 33 46 60 49 60 3 0 26 -29
53 -64z m-733 -305 l0 -170 -51 0 c-52 0 -85 12 -106 39 -17 22 -17 242 0 263
21 27 50 37 105 38 l52 0 0 -170z m1483 158 c12 -6 27 -18 34 -27 17 -22 17
-240 0 -262 -21 -27 -54 -39 -106 -39 l-51 0 0 170 0 170 51 0 c28 0 60 -5 72
-12z m-1536 -478 l52 0 6 -37 c26 -152 91 -279 197 -386 l78 -78 0 -218 0
-217 -217 -52 c-120 -29 -221 -52 -225 -52 -5 0 -8 238 -8 529 l0 530 32 -10
c18 -5 56 -9 85 -9z m1579 -1038 c-3 -2 -104 20 -225 49 l-221 53 0 218 0 217
78 78 c106 107 171 234 197 386 l6 37 57 1 c31 1 68 4 82 8 l25 7 3 -525 c1
-288 0 -526 -2 -529z m-1846 428 c0 -183 8 -173 -100 -137 l-65 22 -3 71 -3
72 63 45 c35 24 72 54 82 66 11 11 21 21 23 21 1 0 3 -72 3 -160z m2123 61
l48 -33 -3 -71 -3 -72 -65 -22 c-108 -36 -100 -47 -100 138 l0 161 38 -34 c21
-19 59 -49 85 -67z m-1263 -57 c70 -17 262 -15 310 3 14 6 37 13 53 17 l27 6
0 -219 c0 -195 2 -221 18 -241 14 -17 53 -31 176 -60 86 -21 160 -40 163 -43
8 -9 -16 -76 -56 -152 -74 -144 -231 -267 -396 -310 -77 -20 -233 -20 -310 0
-165 43 -322 166 -396 310 -40 76 -64 143 -56 152 3 3 77 22 163 43 123 29
162 43 176 60 16 20 18 46 18 242 l0 220 23 -6 c12 -4 51 -14 87 -22z m-1180
-127 c0 -129 -36 -177 -133 -177 -87 0 -127 57 -127 182 l0 83 130 0 130 0 0
-88z m2900 5 c0 -125 -40 -182 -127 -182 -97 0 -133 48 -133 177 l0 88 130 0
130 0 0 -83z m-2311 -537 c62 -163 195 -321 336 -400 l66 -37 -68 -40 c-37
-22 -75 -46 -84 -54 -13 -12 -20 -10 -55 13 -167 113 -323 322 -378 510 l-15
53 37 9 c20 5 53 14 72 19 19 6 40 11 46 11 6 1 25 -37 43 -84z m1541 76 c19
-6 54 -15 77 -21 l41 -10 -10 -38 c-49 -179 -183 -374 -339 -491 -73 -55 -83
-60 -98 -47 -9 8 -47 32 -85 54 l-68 41 43 22 c155 78 294 239 361 416 17 45
34 83 37 83 3 0 22 -4 41 -9z m-1861 -143 c66 -208 222 -424 395 -548 l45 -33
-44 -62 c-96 -134 -146 -286 -148 -452 l-2 -103 -82 0 -83 0 0 137 0 137 -52
53 c-42 43 -59 53 -85 53 -72 0 -96 -73 -43 -133 29 -34 30 -37 30 -141 l0
-106 -160 0 -160 0 0 409 c0 228 4 432 10 462 16 87 81 206 147 271 52 51 170
127 199 128 5 0 20 -33 33 -72z m2203 41 c85 -43 178 -134 222 -218 63 -120
66 -148 66 -608 l0 -413 -160 0 -160 0 0 106 c0 104 1 107 30 141 35 40 39 80
10 111 -36 39 -77 30 -137 -30 l-53 -52 0 -138 0 -138 -86 0 -86 0 7 40 c4 23
4 68 0 102 -11 96 -68 136 -126 89 -22 -18 -24 -26 -25 -137 -1 -98 -6 -133
-28 -199 -105 -327 -430 -519 -761 -450 -127 27 -276 115 -364 216 -167 194
-203 484 -90 713 87 174 246 303 434 351 84 21 225 19 319 -5 140 -36 286
-132 359 -238 35 -50 66 -65 107 -51 59 21 65 66 16 137 l-35 50 45 32 c174
125 327 337 395 550 13 38 27 70 31 70 5 0 36 -14 70 -31z"/>
<path d="M2494 1291 c-28 -12 -63 -55 -109 -135 -22 -36 -46 -66 -55 -66 -8 0
-51 -9 -95 -20 -110 -28 -155 -75 -155 -160 0 -52 9 -70 80 -150 l58 -66 -9
-88 c-11 -105 -1 -151 38 -188 61 -58 108 -61 226 -12 l87 37 88 -37 c117 -49
164 -46 225 12 40 38 49 85 38 187 l-10 87 58 67 c72 81 81 99 81 151 0 85
-45 132 -155 160 -44 11 -87 20 -95 20 -8 0 -36 35 -62 78 -65 108 -85 125
-156 129 -31 1 -66 -1 -78 -6z m120 -222 c27 -45 61 -88 78 -99 16 -10 68 -26
114 -35 46 -10 84 -21 84 -24 0 -3 -27 -36 -59 -73 -76 -86 -84 -110 -72 -223
5 -50 8 -91 7 -92 -2 -2 -39 13 -83 32 -103 44 -139 44 -244 0 -45 -20 -83
-34 -84 -33 -2 2 1 43 6 93 12 113 4 137 -72 223 -32 37 -59 69 -59 72 0 3 38
14 84 24 47 10 98 27 114 36 17 11 51 54 78 99 27 45 51 81 54 81 3 0 27 -36
54 -81z"/>
</g>
</svg>
