<svg width="11" height="20" viewBox="0 0 11 20" fill="none" xmlns="http://www.w3.org/2000/svg">
<path d="M10.1576 8.47815L9.91378 10.4329C9.87254 10.7595 9.59562 11.0051 9.26715 11.0051H6.09659V19.1781C5.76223 19.2082 5.42345 19.2237 5.08099 19.2237C4.31505 19.2237 3.56752 19.1472 2.84503 19.0016V11.0051H0.406538C0.182647 11.0051 0 10.822 0 10.5977V8.15161C0 7.9273 0.182647 7.74418 0.406538 7.74418H2.84503V4.07581C2.84503 1.82463 4.66487 0 6.91041 0H9.75544C9.97933 0 10.162 0.183124 10.162 0.407433V2.8535C10.162 3.07781 9.97933 3.26094 9.75544 3.26094H7.72275C6.82498 3.26094 6.09733 3.99049 6.09733 4.89141V7.74491H9.51166C9.90347 7.74491 10.2062 8.0891 10.1583 8.47888L10.1576 8.47815Z" fill="white"/>
</svg>
