<svg width="16" height="16" viewBox="0 0 16 16" fill="none" xmlns="http://www.w3.org/2000/svg">
<path d="M11.6452 0H3.70524C1.6593 0 0 1.65695 0 3.7V11.6288C0 13.6718 1.6593 15.3288 3.70524 15.3288H11.6452C13.6912 15.3288 15.3505 13.6718 15.3505 11.6288V3.7C15.3505 1.65695 13.6912 0 11.6452 0ZM14.027 11.3647C14.027 12.8239 12.8413 14.0079 11.3801 14.0079H3.96964C2.50846 14.0079 1.32273 12.8239 1.32273 11.3647V3.96475C1.32273 2.50564 2.50846 1.32158 3.96964 1.32158H11.3801C12.8413 1.32158 14.027 2.50564 14.027 3.96475V11.3647Z" fill="white"/>
<path d="M7.68253 3.69983C5.4915 3.69983 3.71289 5.47592 3.71289 7.66385C3.71289 9.85178 5.4915 11.6279 7.68253 11.6279C9.87356 11.6279 11.6522 9.85178 11.6522 7.66385C11.6522 5.47592 9.87356 3.69983 7.68253 3.69983ZM7.68253 10.307C6.22429 10.307 5.03561 9.12002 5.03561 7.66385C5.03561 6.20768 6.22429 5.02068 7.68253 5.02068C9.14076 5.02068 10.3294 6.20768 10.3294 7.66385C10.3294 9.12002 9.14076 10.307 7.68253 10.307Z" fill="white"/>
<path d="M11.9175 4.2288C11.48 4.2288 11.1235 3.87284 11.1235 3.43599C11.1235 2.99914 11.48 2.64319 11.9175 2.64319C12.3549 2.64319 12.7114 2.99914 12.7114 3.43599C12.7114 3.87284 12.3549 4.2288 11.9175 4.2288Z" fill="white"/>
</svg>
