<svg width="15" height="15" viewBox="0 0 15 15" fill="none" xmlns="http://www.w3.org/2000/svg">
<path d="M1.88466 3.76398C2.92553 3.76398 3.76932 2.92138 3.76932 1.88199C3.76932 0.842593 2.92553 0 1.88466 0C0.843796 0 0 0.842593 0 1.88199C0 2.92138 0.843796 3.76398 1.88466 3.76398Z" fill="white"/>
<path d="M3.31488 5.01794H0.455124C0.377435 5.01794 0.314453 5.08083 0.314453 5.15841V14.2867C0.314453 14.3643 0.377435 14.4272 0.455124 14.4272H3.31488C3.39257 14.4272 3.45555 14.3643 3.45555 14.2867V5.15841C3.45555 5.08083 3.39257 5.01794 3.31488 5.01794Z" fill="white"/>
<path d="M14.1345 8.46869V13.8006C14.1345 14.1455 13.8516 14.428 13.5062 14.428H11.6216C11.2762 14.428 10.9934 14.1455 10.9934 13.8006V9.40932C10.9934 8.54371 10.29 7.84136 9.42318 7.84136C8.55635 7.84136 7.853 8.54371 7.853 9.40932V13.8006C7.853 14.1455 7.5702 14.428 7.22479 14.428H5.34013C4.99472 14.428 4.71191 14.1455 4.71191 13.8006V5.64534C4.71191 5.30042 4.99472 5.01801 5.34013 5.01801H7.22479C7.5702 5.01801 7.853 5.30042 7.853 5.64534V6.04689C8.48122 5.23423 9.52113 4.70471 10.6796 4.70471C12.4133 4.70471 14.1345 5.95937 14.1345 8.46869Z" fill="white"/>
</svg>
