<svg width="825" height="623" viewBox="0 0 825 623" fill="none" xmlns="http://www.w3.org/2000/svg">
<path d="M1047.06 575.735C933.141 638.328 799.601 639.867 741.248 568.367C707.622 527.179 698.571 465.587 653.162 435.772C585.305 391.213 468.893 433.721 369.744 447.658C239.556 465.968 122.043 430.123 53.8451 351.277C10.6418 301.362 -13.1303 231.098 9.27674 152.221C34.9977 61.619 124.633 -30.5498 221.14 -65.6775C362.771 -117.203 485.606 -49.4693 627.363 -97.1566C684.822 -116.487 740.507 -153.012 797.967 -172.625C1168.86 -299.286 1261.31 -123.17 1293.2 -22.3396C1322.11 69.1323 1326.93 177.95 1289.14 288.574C1251.34 399.199 1160.98 513.156 1047.06 575.735Z" fill="url(#paint0_linear_205_629)" fill-opacity="0.45"/>
<defs>
<linearGradient id="paint0_linear_205_629" x1="1139.64" y1="51.6796" x2="65.5192" y2="9.87561" gradientUnits="userSpaceOnUse">
<stop stop-color="#8564D9"/>
<stop offset="1" stop-color="#FFC727"/>
</linearGradient>
</defs>
</svg>
