<svg width="645" height="997" viewBox="0 0 645 997" fill="none" xmlns="http://www.w3.org/2000/svg">
<path d="M628.545 487.096C586.8 341.41 477.831 222.427 356.396 130.04C280.729 72.4822 196.402 21.9811 103.071 5.62055C9.74615 -10.7101 -94.1235 12.5302 -155.421 82.9986C-193.854 127.17 -212.33 184.796 -229.899 240.744C-263.628 348.213 -297.34 455.695 -331.069 563.164C-350.42 624.841 -369.989 689.392 -358.721 753.515C-347.752 815.936 -307.784 871.309 -257.416 910.68C-216.842 942.397 -169.101 983.026 -56.3923 994.19C-11.0194 998.69 34.6409 997.021 79.4651 989.972C144.065 979.814 208.652 969.674 273.251 959.516C353.342 946.922 436.077 933.344 503.552 889.395C629.466 807.369 670.285 632.752 628.522 487.054L628.545 487.096Z" fill="url(#paint0_linear_205_626)" fill-opacity="0.45"/>
<defs>
<linearGradient id="paint0_linear_205_626" x1="62.8079" y1="949.141" x2="36.2286" y2="5.2053" gradientUnits="userSpaceOnUse">
<stop stop-color="#FFC727"/>
<stop offset="1" stop-color="#8564D9"/>
</linearGradient>
</defs>
</svg>
