<svg width="1007" height="997" viewBox="0 0 1007 997" fill="none" xmlns="http://www.w3.org/2000/svg">
<path d="M990.576 486.465C948.83 340.779 839.862 221.796 718.426 129.409C642.76 71.8511 558.433 21.35 465.102 4.98942C371.777 -11.3412 267.907 11.8991 206.61 82.3675C168.177 126.539 149.701 184.164 132.132 240.113C98.4025 347.582 64.6908 455.063 30.9615 562.533C11.6112 624.21 -7.95827 688.761 3.30969 752.884C14.2788 815.304 54.2467 870.678 104.615 910.049C145.189 941.766 192.93 982.395 305.638 993.559C351.011 998.059 396.672 996.39 441.496 989.341C506.095 979.183 570.683 969.043 635.282 958.885C715.372 946.291 798.107 932.713 865.583 888.764C991.496 806.738 1032.32 632.121 990.553 486.423L990.576 486.465Z" fill="url(#paint0_linear_755_1266)" fill-opacity="0.45"/>
<defs>
<linearGradient id="paint0_linear_755_1266" x1="424.839" y1="948.51" x2="398.259" y2="4.5742" gradientUnits="userSpaceOnUse">
<stop stop-color="#FFC727"/>
<stop offset="1" stop-color="#8564D9"/>
</linearGradient>
</defs>
</svg>
