<svg width="1311" height="848" viewBox="0 0 1311 848" fill="none" xmlns="http://www.w3.org/2000/svg">
<path d="M247.112 56.3215C357.736 -11.9221 491.03 -20.1759 552.905 48.2986C588.56 87.7432 600.698 148.802 647.549 176.295C717.561 217.385 831.688 169.075 930.01 150.168C1059.11 125.333 1178.28 155.222 1250.36 230.537C1296.02 278.216 1323.29 347.196 1304.88 427.101C1283.75 518.881 1198.86 615.442 1104.25 655.379C965.387 713.964 839.3 652.494 700.121 707.251C643.707 729.447 589.929 768.727 533.529 791.206C169.481 936.362 68.28 765.119 31.3613 666.02C-2.10808 576.118 -12.3989 467.68 19.7824 355.295C51.9636 242.91 136.477 124.552 247.112 56.3215Z" fill="url(#paint0_linear_146_354)" fill-opacity="0.45"/>
<defs>
<linearGradient id="paint0_linear_146_354" x1="181.002" y1="584.371" x2="1255.87" y2="572.094" gradientUnits="userSpaceOnUse">
<stop stop-color="#FFC727"/>
<stop offset="1" stop-color="#8564D9"/>
</linearGradient>
</defs>
</svg>
