<svg width="480" height="450" viewBox="0 0 480 450" fill="none" xmlns="http://www.w3.org/2000/svg">
<path d="M315.246 354.295C220.506 443.283 91.5549 478.027 17.2358 423.31C-25.5876 391.792 -49.6911 334.395 -101.093 316.826C-177.908 290.568 -280.069 360.726 -372.623 398.913C-494.151 449.065 -616.889 443.612 -702.572 384.232C-756.844 346.648 -797.364 284.516 -795.305 202.544C-792.955 108.391 -729.094 -3.19499 -644.375 -61.2476C-520.036 -146.418 -384.204 -111.406 -258.787 -192.891C-207.951 -225.92 -163.115 -275.161 -112.35 -308.465C215.315 -523.493 348.718 -375.948 404.709 -286.234C455.481 -204.841 487.25 -100.652 478.194 15.8983C469.138 132.449 410.002 265.318 315.246 354.295Z" fill="url(#paint0_linear_205_794)" fill-opacity="0.45"/>
<defs>
<linearGradient id="paint0_linear_205_794" x1="274.419" y1="-176.308" x2="-776.28" y2="50.6773" gradientUnits="userSpaceOnUse">
<stop stop-color="#FFC727"/>
<stop offset="1" stop-color="#8564D9"/>
</linearGradient>
</defs>
</svg>
