<svg width="629" height="688" viewBox="0 0 629 688" fill="none" xmlns="http://www.w3.org/2000/svg">
<path d="M464.246 592.295C369.506 681.283 240.555 716.027 166.236 661.31C123.412 629.792 99.3089 572.395 47.9066 554.826C-28.9085 528.568 -131.069 598.726 -223.623 636.913C-345.151 687.065 -467.889 681.612 -553.572 622.232C-607.844 584.648 -648.364 522.516 -646.305 440.544C-643.955 346.391 -580.094 234.805 -495.375 176.752C-371.036 91.5817 -235.204 126.594 -109.787 45.1094C-58.9513 12.0799 -14.1153 -37.1608 36.65 -70.4649C364.315 -285.493 497.718 -137.948 553.709 -48.2341C604.481 33.1587 636.25 137.348 627.194 253.898C618.138 370.449 559.002 503.318 464.246 592.295Z" fill="url(#paint0_linear_158_453)" fill-opacity="0.45"/>
<defs>
<linearGradient id="paint0_linear_158_453" x1="423.419" y1="61.6918" x2="-627.28" y2="288.677" gradientUnits="userSpaceOnUse">
<stop stop-color="#8564D9"/>
<stop offset="1" stop-color="#FFC727"/>
</linearGradient>
</defs>
</svg>
