<svg width="1305" height="1348" viewBox="0 0 1305 1348" fill="none" xmlns="http://www.w3.org/2000/svg">
<path d="M1239.11 811.172C1191.64 867.778 1127.58 911.366 1063.65 952.99C899.015 1060.17 727.778 1160.78 542.553 1234.31C357.328 1307.84 156.753 1353.73 -42.2202 1347.38C-141.336 1344.24 -246.548 1324.7 -311.155 1259.64C-382.999 1187.27 -386.123 1077.89 -370.207 979.526C-354.297 881.129 -323.062 781.645 -339.545 684.569C-351.932 611.716 -390.549 545.249 -406.041 472.967C-434.366 340.695 -377.182 193.386 -261.637 100.946C-192.288 45.4252 -103.496 11.0069 -12.7327 1.14294C63.1373 -7.0956 134.578 29.8214 162.61 92.0078C162.774 92.3596 162.938 92.7114 163.107 93.0916C203.833 184.852 180.741 296.559 234.84 382.214C283.747 459.627 387.049 497.906 487.833 502.74C588.618 507.574 689.421 484.285 789.092 464.553C888.763 444.822 992.272 428.498 1090.39 447.075C1188.51 465.652 1280.87 526.866 1300.72 614.889C1315.9 682.262 1286.58 754.566 1239.11 811.172Z" fill="url(#paint0_linear_164_460)" fill-opacity="0.2"/>
<defs>
<linearGradient id="paint0_linear_164_460" x1="-440.988" y1="763.894" x2="1270.28" y2="448.834" gradientUnits="userSpaceOnUse">
<stop stop-color="#FFC727"/>
<stop offset="1" stop-color="#5F5EA5"/>
</linearGradient>
</defs>
</svg>
