<svg xmlns="http://www.w3.org/2000/svg" id="Calque_2" data-name="Calque 2" viewBox="0 0 336.32 357.97"><defs><style>.cls-1 { fill: #1d1d1b; } .cls-2 { fill: #f0b400; }</style></defs><g id="Calque_1-2" data-name="Calque 1"><path class="cls-1" d="M242.12 235.75c2.6.71 5.63.89 8.65.61 7.35-.68 14.61-4.07 15.29-9.04.23-3.46-7.39-5.53-15.29-5.78-8.07-.25-16.44 1.41-17.06 5.45-.47 3.11 5.66 8.01 8.41 8.76m33.63-62.22c1.1-5.02-19.77-6.79-20.89-.34 1.12 7.5 19.59 5.39 20.89.34zm44.73 156.74c-4.78-7.74-35.44-4.93-37.52 1.58 3.23 12.74 37.45 16.54 37.52-1.58zm-23.87-55.15c1.79 7.33 23.08 7.09 22.69-1.88-.83-6.23-23.35-6.69-22.69 1.88zm21.24-7.37c.9 4.52 16.24 5.79 17.92 1.93 4.29-12.31-18-10.89-17.92-1.93zm-67.08-88.09c-1.41.31-2.38.78-2.45 1.35-.1 1.42.92 2.51 2.45 3.23 3.93 1.86 11.23 1.32 11.58-2.16-.09-2.91-7.58-3.29-11.58-2.41zm52.83 20.63c-.09 4.46 13.07 5.73 13.29-.51-.7-3.65-13.12-3.14-13.29.51zM301.99 202.6c.59-3.88-16.31-4.23-16.39-.33.62 5.69 15.43 5.72 16.39.33zM309.22 192.6c.66-5.76-28.4-8.35-28.07-2.13 1.92 10.15 25.29 11.1 28.07 2.13zm-25.48 62.74c4.36 12.95 37.47 16.08 37.52-1.58-.05-8.55-39.11-5.49-37.52 1.58zM285.67 198.37c-.59-2.96-14.48-5.35-14.07.5.04 4.57 14.64 4.96 14.07-.5zm-32.86 41.5c2.18 7.27 19.5 6.35 18.02-2.76-.92-4.31-18.93-1.43-18.02 2.76zm42.37 28.98c.15-4.5-13.31-6.47-18.69-2.72-2.31 1.58-1.66 3.66-.11 5.47 4.34 5.2 17.38 4.12 18.8-2.74zM277.42 181.8c-.41-5.03-11.22-3.64-12.49-.25-.45 3.8 12.25 3.2 12.49.25zm39.63 163.24c.5 5.03 15.67 6.24 18.72 1.16 3.57-11-18.79-9.93-18.72-1.16zM275.67 344.98c-2.04 8.61 19.5 11.1 18.74.38-1.04-4.75-17.18-6.92-18.74-.38zM252.8 317.19c1.49 7.65 19.97 5.24 17.24-2.77-2.07-4.46-18.15-2.65-17.24 2.77zM232.58 312.87c-.38-6.97-20.96-6.82-17.24 2.78 2.28 4.83 17.31 1.68 17.24-2.78zM266.36 303.4c-1.38-5.63-36.82-10.2-34.37.08 1.77 7.41 11.26 10.89 19.33 9.76 7.13-1 15.16-4.78 15.04-9.85zM250.77 178.32c.59-.27.97-.58.97-.95.0-.94-.37-1.66-.97-2.2-2.7-2.4-10.17-.95-10.74 1.96.01 2.5 7.95 2.45 10.74 1.18zM229.3 244.08c.37 5.19 14.22 5.02 18.82 2.32.92-.54 1.48-1.18 1.48-1.91-.01-.25-.04-.5-.09-.74-1.47-7.07-18.79-5.54-20.2.33zM233.38 235.57c-1.01-6.39-18.63-5.74-18.02 2.76 1.45 4.85 17.53 2.7 18.02-2.76z"/><g><g><path class="cls-2" d="M250.77 175.17V15.39c0-8.5-6.09-15.39-13.62-15.39H13.62C6.1.0.0 6.89.0 15.39V237.3c0 8.5 6.1 15.39 13.62 15.39h223.54c4.51.0 8.49-2.49 10.97-6.3-4.6 2.7-18.45 2.88-18.82-2.32 1.41-5.86 18.74-7.4 20.2-.33.81-1.96 1.27-4.15 1.27-6.45v-.94c-3.02.28-6.05.11-8.65-.61-2.75-.75-8.88-5.65-8.41-8.76.62-4.04 8.99-5.7 17.06-5.45v-37.31c-1.53-.72-2.55-1.81-2.45-3.23.07-.57 1.04-1.03 2.45-1.35v-1.34c-2.79 1.27-10.72 1.32-10.74-1.18.56-2.91 8.04-4.36 10.74-1.96zM37.93 221.3h-7.8V39.23h7.8V221.3zm66.84-98.1h-7.8v-15.52c-.02-4.04-1.38-7.41-4.27-10.48-2.91-3.04-6.15-4.44-10.16-4.47-4.02.02-7.26 1.43-10.16 4.47-2.9 3.07-4.26 6.44-4.28 10.48v22.46c.03 4.91 1.66 8.56 4.95 11.44 1.3.97 2.71 1.87 4.28 2.69 1.59.84 3.33 1.69 5.26 2.57.28.14.72.35 1.32.59.56.24 1.01.45 1.38.62.2.03.5.09.9.16l.27.04.26.13c1.72.86 3.26 1.63 4.64 2.33 1.52.75 3.07 1.77 4.7 3.03 2.6 2.05 4.71 4.53 6.29 7.41 1.62 2.96 2.43 6.35 2.42 10.04v27.37c.02 6.26-2.18 11.77-6.46 16.13-4.24 4.35-9.6 6.62-15.68 6.62h-.09c-6.12.02-11.52-2.25-15.77-6.62-4.28-4.35-6.48-9.86-6.46-16.13v-15.52h7.8v15.52c.02 4.23 1.39 7.63 4.26 10.59 2.89 2.95 6.14 4.33 10.17 4.35 4.02-.02 7.27-1.39 10.17-4.35 2.86-2.96 4.24-6.37 4.25-10.59v-27.37c0-2.29-.53-4.38-1.59-6.35-1.11-2.06-2.52-3.87-4.33-5.51-.62-.62-1.67-1.3-3.15-1.93-1.56-.66-3.15-1.38-4.77-2.19-.09.0-.19-.02-.3-.05v.18l-2.53-1.04c-2.98-1.23-5.22-2.27-6.81-3.21-1.53-.9-3.26-2.05-5.29-3.54-2.43-2.05-4.37-4.55-5.76-7.44-1.43-2.95-2.12-6.3-2.11-9.97v-22.46c-.02-6.11 2.18-11.56 6.44-15.99 4.25-4.46 9.66-6.78 15.79-6.76 6.12-.02 11.53 2.3 15.78 6.76 4.26 4.43 6.47 9.88 6.45 15.99v15.52zm59.9 27.23H128v47.99c.02 4.23 1.39 7.64 4.26 10.6 2.89 2.95 6.14 4.33 10.17 4.35 4.02-.02 7.27-1.4 10.17-4.35 2.87-2.96 4.24-6.36 4.26-10.59v-15.52h7.81v15.52c.01 6.43-2.17 12-6.48 16.27-4.24 4.27-9.61 6.48-15.69 6.48h-.06c-6.1.01-11.5-2.2-15.76-6.48-4.31-4.28-6.5-9.84-6.47-16.27v-90.61c-.02-6.11 2.18-11.56 6.45-15.99 4.25-4.47 9.66-6.79 15.78-6.77 6.13-.02 11.54 2.3 15.78 6.77 4.26 4.42 6.46 9.88 6.45 15.99v42.62zm35.59 70.74c-6.11.03-11.5-2.19-15.75-6.48-4.31-4.28-6.5-9.85-6.48-16.27V107.8c-.02-6.11 2.18-11.57 6.45-15.99 4.25-4.47 9.66-6.78 15.78-6.77 6.13-.02 11.53 2.3 15.78 6.77 4.27 4.42 6.47 9.88 6.46 15.99v42.63h-36.66v47.99c.02 4.22 1.39 7.63 4.26 10.59 2.9 2.95 6.15 4.33 10.17 4.35 4.03-.02 7.27-1.41 10.17-4.35 2.86-2.96 4.24-6.37 4.25-10.59v-15.53h7.81v15.53c.01 6.42-2.17 11.99-6.48 16.27-4.24 4.27-9.6 6.48-15.67 6.48-.03.0-.06.0-.09.0zm15.1 17.16c-.61-8.5 17.01-9.15 18.02-2.76-.49 5.45-16.57 7.6-18.02 2.76z"/><path class="cls-2" d="M214.69 142.88V107.8c-.01-4.04-1.38-7.41-4.28-10.48-2.9-3.03-6.14-4.44-10.15-4.46-4.01.02-7.25 1.43-10.15 4.46-2.89 3.08-4.26 6.45-4.28 10.48h0v35.08h28.85z"/><path class="cls-2" d="M142.44 92.86c-4.01.02-7.25 1.43-10.15 4.46-2.9 3.08-4.26 6.45-4.27 10.49v35.08h28.85v-35.08c-.02-4.04-1.38-7.41-4.27-10.49-2.91-3.03-6.15-4.44-10.16-4.46z"/></g><path class="cls-1" d="M295.19 352.77c1.79 7.33 23.08 7.09 22.69-1.88-.83-6.23-23.35-6.69-22.69 1.88"/></g><path class="cls-1" d="M230.09 320.4c.37 5.19 14.22 5.02 18.82 2.31.92-.54 1.48-1.18 1.48-1.9-.01-.26-.04-.5-.09-.74-1.47-7.07-18.79-5.54-20.2.33"/><g><path class="cls-1" d="M1.14 268.66h2.2c1.19.0 2.05.11 2.58.33.53.22.94.58 1.25 1.07.3.49.46 1.08.46 1.77.0.76-.2 1.4-.6 1.9-.4.5-.94.86-1.62 1.05-.4.12-1.13.17-2.19.17v4.62H1.14v-10.92M3.22 272.92h.66c.52.0.88-.04 1.08-.11s.36-.2.48-.37.17-.38.17-.62c0-.42-.16-.73-.49-.92-.24-.14-.68-.22-1.32-.22h-.59v2.24z"/><path class="cls-1" d="M12.99 268.66h2.11l4.2 10.92h-2.16l-.85-2.25h-4.46l-.89 2.25H8.78l4.21-10.92M14.06 271.55l-1.46 3.75h2.92l-1.46-3.75z"/><path class="cls-1" d="M21.05 268.66h2.2c1.21.0 2.07.11 2.58.32.51.22.92.57 1.23 1.07s.47 1.09.47 1.77-.17 1.32-.52 1.8c-.34.48-.86.85-1.55 1.1l2.59 4.85h-2.27l-2.46-4.62h-.19v4.62h-2.08v-10.92M23.13 272.92h.65c.66.0 1.12-.09 1.36-.26.25-.17.37-.46.37-.86.0-.24-.06-.45-.18-.62-.12-.18-.29-.3-.5-.38s-.59-.12-1.14-.12h-.57v2.24z"/><polyline class="cls-1" points="28.65 268.66 34.69 268.66 34.69 270.7 32.7 270.7 32.7 279.57 30.59 279.57 30.59 270.7 28.65 270.7 28.65 268.66"/><polyline class="cls-1" points="36.12 268.66 42.08 268.66 42.08 270.69 38.18 270.69 38.18 272.66 42.08 272.66 42.08 274.66 38.18 274.66 38.18 277.53 42.08 277.53 42.08 279.57 36.12 279.57 36.12 268.66"/><polyline class="cls-1" points="44.03 268.66 46.02 268.66 50.69 275.84 50.69 268.66 52.77 268.66 52.77 279.57 50.77 279.57 46.1 272.41 46.1 279.57 44.03 279.57 44.03 268.66"/><path class="cls-1" d="M58.6 268.66h2.11l4.2 10.92h-2.16l-.85-2.25h-4.46l-.89 2.25h-2.16l4.21-10.92M59.66 271.55l-1.47 3.75h2.92l-1.46-3.75z"/><rect class="cls-1" x="66.36" y="268.66" width="2.06" height="10.92"/><path class="cls-1" d="M70.91 268.66h2.2c1.21.0 2.07.11 2.58.32.51.22.92.57 1.23 1.07s.47 1.09.47 1.77-.17 1.32-.52 1.8c-.34.48-.86.85-1.56 1.1l2.59 4.85h-2.27l-2.45-4.62h-.19v4.62h-2.08v-10.92M72.99 272.92h.65c.66.0 1.12-.09 1.37-.26s.37-.46.37-.86c0-.24-.06-.45-.18-.62-.12-.18-.29-.3-.5-.38s-.59-.12-1.14-.12h-.57v2.24z"/><polyline class="cls-1" points="79.59 268.66 85.56 268.66 85.56 270.69 81.66 270.69 81.66 272.66 85.56 272.66 85.56 274.66 81.66 274.66 81.66 277.53 85.56 277.53 85.56 279.57 79.59 279.57 79.59 268.66"/><path class="cls-1" d="M93.58 268.66h2.46c1.59.0 2.77.2 3.54.59.77.39 1.41 1.03 1.91 1.92.5.89.75 1.92.75 3.1.0.84-.14 1.62-.42 2.32-.28.71-.67 1.29-1.16 1.75-.49.47-1.02.79-1.6.97-.57.18-1.57.27-2.98.27h-2.5v-10.92m2.06 2v6.89h.96c.95.0 1.64-.11 2.07-.33.43-.22.78-.59 1.05-1.1.27-.52.41-1.15.41-1.9.0-1.16-.32-2.06-.97-2.7-.58-.58-1.52-.86-2.81-.86h-.7z"/><path class="cls-1" d="M104.14 268.66h2.09v7.06c0 .61.05 1.04.16 1.29s.28.45.53.6c.25.15.54.23.89.23.37.0.68-.08.95-.25s.45-.38.55-.64.15-.75.15-1.49v-6.8h2.09v6.51c0 1.1-.06 1.86-.19 2.29-.12.43-.36.84-.71 1.23-.35.4-.75.69-1.21.88s-.98.28-1.59.28c-.79.0-1.48-.18-2.07-.54-.59-.36-1.01-.82-1.26-1.37s-.38-1.47-.38-2.77v-6.51"/><polyline class="cls-1" points="120.02 268.66 122.13 268.66 122.13 272.77 125.77 272.77 125.77 268.66 127.87 268.66 127.87 279.57 125.77 279.57 125.77 274.79 122.13 274.79 122.13 279.57 120.02 279.57 120.02 268.66"/><path class="cls-1" d="M133.7 268.66h2.11l4.2 10.92h-2.16l-.85-2.25h-4.46l-.89 2.25h-2.16l4.21-10.92M134.76 271.55l-1.46 3.75h2.92l-1.46-3.75z"/><polyline class="cls-1" points="141.62 268.66 143.62 268.66 148.29 275.84 148.29 268.66 150.37 268.66 150.37 279.57 148.37 279.57 143.7 272.41 143.7 279.57 141.62 279.57 141.62 268.66"/><path class="cls-1" d="M152.87 268.66h2.46c1.59.0 2.77.2 3.54.59.77.39 1.41 1.03 1.91 1.92.5.89.75 1.92.75 3.1.0.84-.14 1.62-.42 2.32-.28.71-.66 1.29-1.16 1.75-.49.47-1.02.79-1.6.97-.57.18-1.57.27-2.98.27h-2.5v-10.92M154.93 270.66v6.89h.96c.95.0 1.64-.11 2.07-.33.43-.22.78-.59 1.05-1.1.27-.52.41-1.15.41-1.9.0-1.16-.32-2.06-.97-2.7-.58-.58-1.52-.86-2.81-.86h-.71z"/><rect class="cls-1" x="163.36" y="268.66" width="2.06" height="10.92"/><path class="cls-1" d="M177.8 270.57l-1.45 1.39c-.99-1.04-2.1-1.57-3.34-1.57-1.04.0-1.92.36-2.64 1.07-.71.71-1.07 1.59-1.07 2.64.0.73.16 1.37.47 1.94.32.56.76 1.01 1.34 1.33s1.22.48 1.93.48c.6.0 1.15-.11 1.65-.34.5-.23 1.05-.63 1.65-1.23l1.41 1.47c-.81.79-1.57 1.33-2.29 1.64-.72.3-1.54.46-2.46.46-1.7.0-3.09-.54-4.17-1.61-1.08-1.08-1.62-2.45-1.62-4.14.0-1.09.25-2.06.74-2.9.49-.85 1.2-1.53 2.12-2.04.92-.52 1.91-.77 2.97-.77.9.0 1.77.19 2.6.57.83.38 1.55.92 2.16 1.62"/><path class="cls-1" d="M182.95 268.66h2.11l4.2 10.92h-2.16l-.85-2.25h-4.46l-.89 2.25h-2.16l4.21-10.92M184.02 271.55l-1.47 3.75h2.92l-1.46-3.75z"/><path class="cls-1" d="M190.86 268.66h2.2c1.19.0 2.05.11 2.58.33.53.22.94.58 1.25 1.07.3.49.46 1.08.46 1.77.0.76-.2 1.4-.6 1.9s-.94.86-1.62 1.05c-.4.12-1.13.17-2.19.17v4.62h-2.08v-10.92M192.94 272.92h.66c.52.0.88-.04 1.08-.11.2-.07.36-.2.48-.37.12-.17.17-.38.17-.62.0-.42-.16-.73-.49-.92-.24-.14-.68-.22-1.32-.22h-.59v2.24z"/><polyline class="cls-1" points="204.63 268.66 206.77 268.66 209.51 276.41 212.3 268.66 214.43 268.66 210.5 279.57 208.5 279.57 204.63 268.66"/><rect class="cls-1" x="215.95" y="268.66" width="2.06" height="10.92"/><path class="cls-1" d="M226.09 270.14l-1.54 1.36c-.54-.75-1.09-1.13-1.65-1.13-.27.0-.5.07-.67.22-.17.15-.26.31-.26.49s.06.36.19.52c.17.22.68.69 1.52 1.4.79.66 1.27 1.08 1.44 1.26.42.43.72.83.9 1.22.18.39.26.81.26 1.27.0.9-.31 1.64-.93 2.22-.62.58-1.43.88-2.42.88-.78.0-1.46-.19-2.03-.57-.58-.38-1.07-.98-1.48-1.8l1.75-1.05c.53.96 1.13 1.45 1.81 1.45.36.0.66-.1.9-.31s.36-.45.36-.72c0-.25-.09-.5-.28-.74-.18-.25-.59-.62-1.21-1.13-1.19-.97-1.96-1.72-2.31-2.25s-.52-1.05-.52-1.58c0-.76.29-1.41.87-1.95.58-.54 1.29-.81 2.14-.81.55.0 1.06.13 1.56.38.49.25 1.03.71 1.6 1.38"/><path class="cls-1" d="M228.19 268.66h2.09v7.06c0 .61.05 1.04.16 1.29.11.25.28.45.53.6.24.15.54.23.89.23.37.0.68-.08.95-.25.26-.17.45-.38.55-.64.1-.26.15-.75.15-1.49v-6.8h2.09v6.51c0 1.1-.06 1.86-.19 2.29-.12.43-.36.84-.71 1.23-.35.4-.75.69-1.21.88s-.98.28-1.59.28c-.79.0-1.48-.18-2.07-.54s-1.01-.82-1.26-1.37-.38-1.47-.38-2.77v-6.51"/><polyline class="cls-1" points="238 268.66 243.96 268.66 243.96 270.69 240.07 270.69 240.07 272.66 243.96 272.66 243.96 274.66 240.07 274.66 240.07 277.53 243.96 277.53 243.96 279.57 238 279.57 238 268.66"/></g><polyline class="cls-1" points="245.9 268.66 247.98 268.66 247.98 277.59 251.01 277.59 251.01 279.57 245.9 279.57 245.9 268.66"/><g><polyline class="cls-1" points="62.32 41.6 72.25 41.6 72.25 45.31 66.1 45.31 66.1 48.94 72.25 48.94 72.25 52.6 66.1 52.6 66.1 61.61 62.32 61.61 62.32 41.6"/><path class="cls-1" d="M85.51 41.1c2.83.0 5.27 1.02 7.31 3.07s3.06 4.55 3.06 7.5-1.01 5.4-3.02 7.42c-2.01 2.02-4.45 3.03-7.32 3.03s-5.5-1.04-7.49-3.12-2.98-4.54-2.98-7.4c0-1.91.46-3.67 1.39-5.28s2.2-2.88 3.82-3.82c1.62-.94 3.37-1.41 5.23-1.41M85.47 44.82c-1.85.0-3.41.64-4.67 1.93s-1.89 2.93-1.89 4.91c0 2.21.79 3.97 2.38 5.25 1.23 1.01 2.65 1.51 4.25 1.51 1.81.0 3.35-.65 4.62-1.96 1.27-1.31 1.91-2.91 1.91-4.83s-.64-3.51-1.92-4.83-2.84-1.98-4.67-1.98z"/><polyline class="cls-1" points="99.89 41.6 103.55 41.6 112.11 54.77 112.11 41.6 115.92 41.6 115.92 61.61 112.25 61.61 103.7 48.48 103.7 61.61 99.89 61.61 99.89 41.6"/><path class="cls-1" d="M120.92 41.6h4.52c2.91.0 5.07.36 6.48 1.08 1.42.72 2.58 1.89 3.49 3.52.92 1.62 1.37 3.52 1.37 5.69.0 1.54-.25 2.96-.77 4.25-.51 1.29-1.22 2.37-2.12 3.22s-1.88 1.44-2.93 1.77c-1.05.32-2.87.49-5.46.49h-4.58V41.61M124.7 45.27V57.9h1.77c1.74.0 3-.2 3.79-.6.78-.4 1.42-1.07 1.92-2.02.5-.94.75-2.1.75-3.49.0-2.12-.59-3.77-1.78-4.94-1.07-1.05-2.79-1.58-5.15-1.58h-1.29z"/><path class="cls-1" d="M146.94 41.6h3.87l7.7 20.01h-3.96l-1.56-4.12h-8.17l-1.63 4.12h-3.96l7.71-20.01M148.89 46.9l-2.68 6.87h5.35l-2.67-6.87z"/><polyline class="cls-1" points="159.89 41.6 170.95 41.6 170.95 45.35 167.31 45.35 167.31 61.61 163.44 61.61 163.44 45.35 159.89 45.35 159.89 41.6"/><rect class="cls-1" x="173.71" y="41.6" width="3.78" height="20.01"/><path class="cls-1" d="M191.64 41.1c2.83.0 5.27 1.02 7.3 3.07 2.04 2.05 3.06 4.55 3.06 7.5s-1 5.4-3.01 7.42-4.45 3.03-7.32 3.03-5.5-1.04-7.49-3.12-2.98-4.54-2.98-7.4c0-1.91.46-3.67 1.39-5.28.92-1.61 2.2-2.88 3.82-3.82s3.37-1.41 5.24-1.41M191.6 44.82c-1.86.0-3.41.64-4.67 1.93s-1.89 2.93-1.89 4.91c0 2.21.79 3.97 2.38 5.25 1.23 1.01 2.65 1.51 4.25 1.51 1.81.0 3.34-.65 4.62-1.96 1.27-1.31 1.91-2.91 1.91-4.83s-.64-3.51-1.92-4.83-2.84-1.98-4.67-1.98z"/><polyline class="cls-1" points="206.03 41.6 209.68 41.6 218.24 54.77 218.24 41.6 222.05 41.6 222.05 61.61 218.39 61.61 209.84 48.48 209.84 61.61 206.03 61.61 206.03 41.6"/></g></g></svg>