<svg width="1305" height="1348" viewBox="0 0 1305 1348" fill="none" xmlns="http://www.w3.org/2000/svg">
<path d="M1239.11 811.186C1191.64 867.792 1127.58 911.38 1063.65 953.004C899.015 1060.18 727.778 1160.79 542.553 1234.32C357.328 1307.86 156.753 1353.75 -42.2202 1347.39C-141.336 1344.25 -246.548 1324.72 -311.155 1259.65C-382.999 1187.29 -386.123 1077.91 -370.207 979.54C-354.297 881.143 -323.062 781.659 -339.545 684.583C-351.932 611.73 -390.549 545.263 -406.041 472.981C-434.366 340.709 -377.182 193.4 -261.637 100.96C-192.288 45.4393 -103.496 11.021 -12.7327 1.15698C63.1373 -7.08157 134.578 29.8354 162.61 92.0219C162.774 92.3736 162.938 92.7254 163.107 93.1056C203.833 184.866 180.741 296.573 234.84 382.228C283.747 459.641 387.049 497.92 487.833 502.754C588.618 507.588 689.421 484.299 789.092 464.567C888.763 444.836 992.272 428.512 1090.39 447.089C1188.51 465.666 1280.87 526.88 1300.72 614.903C1315.9 682.276 1286.58 754.58 1239.11 811.186Z" fill="url(#paint0_linear_164_460)" fill-opacity="0.2"/>
<defs>
<linearGradient id="paint0_linear_164_460" x1="-440.988" y1="763.908" x2="1270.28" y2="448.848" gradientUnits="userSpaceOnUse">
<stop stop-color="#FFC727"/>
<stop offset="1" stop-color="#5F5EA5"/>
</linearGradient>
</defs>
</svg>
