<svg width="465" height="927" viewBox="0 0 465 927" fill="none" xmlns="http://www.w3.org/2000/svg">
<path d="M445.766 470.808C401.784 334.061 294.702 220.165 176.558 130.639C102.943 74.8641 21.3052 25.3964 -67.8799 7.41898C-157.059 -10.5305 -255.09 8.01596 -311.264 71.7511C-346.485 111.701 -362.34 164.757 -377.384 216.279C-406.263 315.246 -435.125 414.225 -464.004 513.192C-480.571 569.99 -497.261 629.456 -484.656 689.434C-472.386 747.819 -432.763 800.508 -383.729 838.619C-344.23 869.32 -297.656 908.523 -190.207 922.24C-146.951 927.768 -103.605 927.565 -61.2125 922.334C-0.117276 914.795 60.9667 907.272 122.062 899.733C197.807 890.387 276.037 880.203 338.867 841.318C456.11 768.743 489.742 607.527 445.743 470.768L445.766 470.808Z" fill="url(#paint0_linear_216_553)" fill-opacity="0.45"/>
<defs>
<linearGradient id="paint0_linear_216_553" x1="-78.2507" y1="883.861" x2="-75.1288" y2="5.25653" gradientUnits="userSpaceOnUse">
<stop stop-color="#FFC727"/>
<stop offset="1" stop-color="#8564D9"/>
</linearGradient>
</defs>
</svg>
