<svg width="626" height="650" viewBox="0 0 626 650" fill="none" xmlns="http://www.w3.org/2000/svg">
<path d="M-411.473 606.392C-296.099 666.253 -162.56 664.61 -105.927 591.74C-73.2914 549.763 -65.7099 487.973 -21.0247 457.085C45.7512 410.922 163.143 450.645 262.596 462.216C393.183 477.419 509.809 438.785 576.109 358.337C618.111 307.407 640.203 236.597 615.923 158.275C588.051 68.312 496.245 -21.6954 398.93 -54.5141C256.111 -102.651 134.925 -32.0104 -7.92819 -76.3072C-65.8316 -94.2631 -122.371 -129.451 -180.282 -147.69C-554.082 -265.48 -642.32 -87.2109 -671.796 14.3504C-698.514 106.485 -700.744 215.387 -660.326 325.079C-619.908 434.772 -526.859 546.544 -411.473 606.392Z" fill="url(#paint0_linear_269_675)" fill-opacity="0.45"/>
<defs>
<linearGradient id="paint0_linear_269_675" x1="-516.518" y1="84.6905" x2="556.306" y2="17.3103" gradientUnits="userSpaceOnUse">
<stop stop-color="#8564D9"/>
<stop offset="1" stop-color="#FFC727"/>
</linearGradient>
</defs>
</svg>
