<svg width="632" height="870" viewBox="0 0 632 870" fill="none" xmlns="http://www.w3.org/2000/svg">
<path d="M1111.25 774.295C1016.51 863.283 887.555 898.027 813.236 843.31C770.412 811.792 746.309 754.395 694.907 736.826C618.092 710.568 515.931 780.726 423.377 818.913C301.849 869.065 179.111 863.612 93.4279 804.232C39.1559 766.648 -1.36417 704.516 0.69532 622.544C3.04498 528.391 66.9057 416.805 151.625 358.752C275.964 273.582 411.796 308.594 537.213 227.109C588.049 194.08 632.885 144.839 683.65 111.535C1011.32 -103.493 1144.72 44.0523 1200.71 133.766C1251.48 215.159 1283.25 319.348 1274.19 435.898C1265.14 552.449 1206 685.318 1111.25 774.295Z" fill="url(#paint0_linear_205_962)" fill-opacity="0.45"/>
<defs>
<linearGradient id="paint0_linear_205_962" x1="1070.42" y1="243.692" x2="19.7202" y2="470.677" gradientUnits="userSpaceOnUse">
<stop stop-color="#FFC727"/>
<stop offset="1" stop-color="#8564D9"/>
</linearGradient>
</defs>
</svg>
