<svg width="418" height="1232" viewBox="0 0 418 1232" fill="none" xmlns="http://www.w3.org/2000/svg">
<path d="M-7.59391 1382.66C-201.571 1427.06 -396.697 1372.76 -566.258 1286.06C-671.901 1232.03 -773.385 1162.93 -838.62 1060.7C-903.818 958.465 -927.054 817.698 -873.173 697.66C-839.404 622.406 -779.828 562.526 -721.805 504.836C-610.341 394.042 -498.854 283.262 -387.391 172.469C-323.418 108.892 -256.129 43.1789 -174.234 15.0423C-94.5141 -12.3467 -8.9715 -0.0722314 62.6102 35.2045C120.274 63.6197 192.066 94.8997 260.612 223.949C288.213 275.896 308.607 332.21 322.184 391.015C341.752 475.764 361.334 560.487 380.902 645.236C405.162 750.308 429.547 859.219 410.279 969.456C374.307 1175.17 186.345 1338.28 -7.65559 1382.66L-7.59391 1382.66Z" fill="#FFC727" fill-opacity="0.3"/>
</svg>
