<svg width="700" height="794" viewBox="0 0 700 794" fill="none" xmlns="http://www.w3.org/2000/svg">
<path d="M896.406 777.663C702.429 822.062 507.303 767.762 337.742 681.061C232.099 627.032 130.615 557.931 65.3798 455.705C0.18248 353.465 -23.0539 212.698 30.8272 92.6601C64.5963 17.4057 124.173 -42.4739 182.195 -100.164C293.659 -210.958 405.146 -321.738 516.609 -432.531C580.582 -496.108 647.871 -561.821 729.766 -589.958C809.486 -617.347 895.029 -605.072 966.61 -569.795C1024.27 -541.38 1096.07 -510.1 1164.61 -381.051C1192.21 -329.104 1212.61 -272.79 1226.18 -213.985C1245.75 -129.236 1265.33 -44.513 1284.9 40.2361C1309.16 145.308 1333.55 254.219 1314.28 364.456C1278.31 570.173 1090.35 733.278 896.345 777.663L896.406 777.663Z" fill="#FFC727" fill-opacity="0.3"/>
</svg>
