<svg width="561" height="848" viewBox="0 0 561 848" fill="none" xmlns="http://www.w3.org/2000/svg">
<path d="M-502.888 56.3218C-392.264 -11.9218 -258.97 -20.1756 -197.095 48.2988C-161.44 87.7434 -149.302 148.802 -102.451 176.295C-32.4393 217.385 81.6877 169.075 180.01 150.168C309.112 125.334 428.28 155.222 500.357 230.538C546.016 278.216 573.293 347.196 554.881 427.101C533.75 518.882 448.864 615.442 354.247 655.38C215.387 713.964 89.3001 652.494 -49.8788 707.252C-106.293 729.447 -160.071 768.727 -216.471 791.206C-580.519 936.362 -681.72 765.119 -718.639 666.02C-752.108 576.118 -762.399 467.681 -730.218 355.295C-698.036 242.91 -613.523 124.552 -502.888 56.3218Z" fill="url(#paint0_linear_150_419)" fill-opacity="0.45"/>
<defs>
<linearGradient id="paint0_linear_150_419" x1="-568.998" y1="584.371" x2="505.87" y2="572.095" gradientUnits="userSpaceOnUse">
<stop stop-color="#FFC727"/>
<stop offset="1" stop-color="#8564D9"/>
</linearGradient>
</defs>
</svg>
