<svg width="869" height="997" viewBox="0 0 869 997" fill="none" xmlns="http://www.w3.org/2000/svg">
<path d="M991.545 487.096C949.8 341.41 840.831 222.427 719.396 130.04C643.729 72.4822 559.402 21.9811 466.071 5.62055C372.746 -10.7101 268.877 12.5302 207.579 82.9986C169.146 127.17 150.67 184.796 133.101 240.744C99.3717 348.213 65.66 455.695 31.9307 563.164C12.5805 624.841 -6.98904 689.392 4.27893 753.515C15.2481 815.936 55.2159 871.309 105.584 910.68C146.158 942.397 193.899 983.026 306.608 994.19C351.981 998.69 397.641 997.021 442.465 989.972C507.065 979.814 571.652 969.674 636.251 959.516C716.342 946.922 799.077 933.344 866.552 889.395C992.466 807.369 1033.29 632.752 991.522 487.054L991.545 487.096Z" fill="url(#paint0_linear_146_370)" fill-opacity="0.45"/>
<defs>
<linearGradient id="paint0_linear_146_370" x1="425.808" y1="949.141" x2="399.229" y2="5.2053" gradientUnits="userSpaceOnUse">
<stop stop-color="#FFC727"/>
<stop offset="1" stop-color="#8564D9"/>
</linearGradient>
</defs>
</svg>
