<svg width="515" height="496" viewBox="0 0 515 496" fill="none" xmlns="http://www.w3.org/2000/svg">
<path d="M1074.87 424.846C991.005 498.151 870.244 519.73 794.921 464.504C751.521 432.692 724.055 378.885 673.512 359.044C597.98 329.39 505.572 385.08 419.91 412.564C307.434 448.659 189.541 434.323 102.985 374.006C48.1621 335.825 4.62153 276.475 0.315433 202.424C-4.64564 117.368 47.9319 21.2406 124.573 -24.8263C237.058 -92.4091 369.747 -50.3109 483.547 -114.474C529.673 -140.483 568.816 -181.626 614.854 -207.889C912.003 -377.46 1050.98 -233.673 1111.45 -148.168C1166.27 -70.5961 1204.66 26.1581 1204.92 130.977C1205.17 235.796 1158.75 351.552 1074.87 424.846Z" fill="url(#paint0_linear_269_674)" fill-opacity="0.45"/>
<defs>
<linearGradient id="paint0_linear_269_674" x1="995.16" y1="-58.6306" x2="57.0918" y2="229.707" gradientUnits="userSpaceOnUse">
<stop stop-color="#8564D9"/>
<stop offset="1" stop-color="#FFC727"/>
</linearGradient>
</defs>
</svg>
