<svg width="646" height="997" viewBox="0 0 646 997" fill="none" xmlns="http://www.w3.org/2000/svg">
<path d="M629.545 487.096C587.8 341.41 478.831 222.427 357.396 130.04C281.729 72.4822 197.402 21.9811 104.071 5.62055C10.7461 -10.7101 -93.1235 12.5302 -154.421 82.9986C-192.854 127.17 -211.33 184.796 -228.899 240.744C-262.628 348.213 -296.34 455.695 -330.069 563.164C-349.42 624.841 -368.989 689.392 -357.721 753.515C-346.752 815.936 -306.784 871.309 -256.416 910.68C-215.842 942.397 -168.101 983.026 -55.3923 994.19C-10.0194 998.69 35.6409 997.021 80.4651 989.972C145.065 979.814 209.652 969.674 274.251 959.516C354.342 946.922 437.077 933.344 504.552 889.395C630.466 807.369 671.285 632.752 629.522 487.054L629.545 487.096Z" fill="url(#paint0_linear_158_452)" fill-opacity="0.45"/>
<defs>
<linearGradient id="paint0_linear_158_452" x1="63.8079" y1="949.141" x2="37.2286" y2="5.2053" gradientUnits="userSpaceOnUse">
<stop stop-color="#FFC727"/>
<stop offset="1" stop-color="#8564D9"/>
</linearGradient>
</defs>
</svg>
