<svg width="321" height="671" viewBox="0 0 321 671" fill="none" xmlns="http://www.w3.org/2000/svg">
<path d="M706.633 433.793C722.608 333.539 688.334 236.658 638.449 154.054C607.362 102.59 568.751 53.8402 514.523 24.8207C460.289 -4.179 387.886 -10.3324 328.658 21.8327C291.525 41.9926 263.094 74.6375 235.723 106.406C183.159 167.433 130.603 228.471 78.0391 289.498C47.877 324.523 16.7406 361.317 5.21813 404.019C-5.99812 445.588 3.16162 488.523 23.5472 523.448C39.9679 551.582 58.3274 586.774 126.313 616.399C153.681 628.329 183.023 636.424 213.402 640.96C257.182 647.497 300.95 654.041 344.73 660.578C399.009 668.682 455.245 676.695 510.668 662.495C614.094 635.987 690.663 534.028 706.63 433.762L706.633 433.793Z" fill="url(#paint0_linear_281_1136)" fill-opacity="0.45"/>
<defs>
<linearGradient id="paint0_linear_281_1136" x1="214.746" y1="611.868" x2="392.584" y2="-11.6006" gradientUnits="userSpaceOnUse">
<stop stop-color="#FFC727"/>
<stop offset="1" stop-color="#8564D9"/>
</linearGradient>
</defs>
</svg>
