<svg width="350" height="671" viewBox="0 0 350 671" fill="none" xmlns="http://www.w3.org/2000/svg">
<path d="M345.633 433.81C361.608 333.555 327.334 236.674 277.449 154.071C246.362 102.606 207.751 53.8563 153.523 24.8368C99.2893 -4.16288 26.8865 -10.3163 -32.3425 21.8488C-69.4749 42.0087 -97.9063 74.6536 -125.277 106.422C-177.841 167.449 -230.397 228.487 -282.961 289.514C-313.123 324.539 -344.259 361.333 -355.782 404.036C-366.998 445.604 -357.838 488.539 -337.453 523.464C-321.032 551.599 -302.673 586.79 -234.687 616.415C-207.319 628.345 -177.977 636.441 -147.598 640.976C-103.818 647.513 -60.0504 654.058 -16.27 660.594C38.0088 668.698 94.245 676.711 149.668 662.511C253.094 636.003 329.663 534.044 345.63 433.778L345.633 433.81Z" fill="url(#paint0_linear_284_836)" fill-opacity="0.45"/>
<defs>
<linearGradient id="paint0_linear_284_836" x1="-146.254" y1="611.885" x2="31.5837" y2="-11.5845" gradientUnits="userSpaceOnUse">
<stop stop-color="#FFC727"/>
<stop offset="1" stop-color="#8564D9"/>
</linearGradient>
</defs>
</svg>
