<svg width="825" height="625" viewBox="0 0 825 625" fill="none" xmlns="http://www.w3.org/2000/svg">
<path d="M1047.06 578.038C933.141 640.881 799.601 642.426 741.248 570.64C707.622 529.287 698.571 467.449 653.162 437.515C585.305 392.778 468.893 435.456 369.745 449.449C239.556 467.832 122.043 431.843 53.8451 352.683C10.6419 302.568 -13.1302 232.023 9.27677 152.829C34.9978 61.8654 124.633 -30.672 221.14 -65.9403C362.771 -117.672 485.606 -49.6672 627.363 -97.5453C684.822 -116.953 740.507 -153.624 797.967 -173.316C1168.86 -300.484 1261.31 -123.663 1293.2 -22.429C1322.11 69.4088 1326.93 178.662 1289.14 289.729C1251.34 400.796 1160.98 515.209 1047.06 578.038Z" fill="url(#paint0_linear_281_1137)" fill-opacity="0.45"/>
<defs>
<linearGradient id="paint0_linear_281_1137" x1="1139.64" y1="51.8863" x2="65.5063" y2="10.2484" gradientUnits="userSpaceOnUse">
<stop stop-color="#8564D9"/>
<stop offset="1" stop-color="#FFC727"/>
</linearGradient>
</defs>
</svg>
