<svg width="27" height="30" viewBox="0 0 27 30" fill="none" xmlns="http://www.w3.org/2000/svg">
<path d="M6.07227 16.5857C6.07227 15.9041 6.62487 15.3514 7.30655 15.3514H7.32198C8.00366 15.3514 8.55627 15.9041 8.55627 16.5857C8.55627 17.2674 8.00366 17.82 7.32198 17.82H7.30655C6.62487 17.82 6.07227 17.2674 6.07227 16.5857Z" fill="#FFC727"/>
<path d="M7.30655 21.5229C6.62487 21.5229 6.07227 22.0755 6.07227 22.7572C6.07227 23.4388 6.62487 23.9915 7.30655 23.9915H7.32198C8.00366 23.9915 8.55627 23.4388 8.55627 22.7572C8.55627 22.0755 8.00366 21.5229 7.32198 21.5229H7.30655Z" fill="#FFC727"/>
<path d="M12.2588 16.5857C12.2588 15.9041 12.8114 15.3514 13.4931 15.3514H13.5085C14.1901 15.3514 14.7428 15.9041 14.7428 16.5857C14.7428 17.2674 14.1901 17.82 13.5085 17.82H13.4931C12.8114 17.82 12.2588 17.2674 12.2588 16.5857Z" fill="#FFC727"/>
<path d="M13.4931 21.5229C12.8114 21.5229 12.2588 22.0755 12.2588 22.7572C12.2588 23.4388 12.8114 23.9915 13.4931 23.9915H13.5085C14.1901 23.9915 14.7428 23.4388 14.7428 22.7572C14.7428 22.0755 14.1901 21.5229 13.5085 21.5229H13.4931Z" fill="#FFC727"/>
<path d="M18.4453 16.5857C18.4453 15.9041 18.998 15.3514 19.6796 15.3514H19.695C20.3767 15.3514 20.9293 15.9041 20.9293 16.5857C20.9293 17.2674 20.3767 17.82 19.695 17.82H19.6796C18.998 17.82 18.4453 17.2674 18.4453 16.5857Z" fill="#FFC727"/>
<path d="M19.6796 21.5229C18.998 21.5229 18.4453 22.0755 18.4453 22.7572C18.4453 23.4388 18.998 23.9915 19.6796 23.9915H19.695C20.3767 23.9915 20.9293 23.4388 20.9293 22.7572C20.9293 22.0755 20.3767 21.5229 19.695 21.5229H19.6796Z" fill="#FFC727"/>
<path fill-rule="evenodd" clip-rule="evenodd" d="M8.48571 1.15714C8.48571 0.518076 7.96764 0 7.32857 0C6.6895 0 6.17143 0.518076 6.17143 1.15714V2.7H3.47143C1.55421 2.7 0 4.25421 0 6.17143V26.2286C0 28.1457 1.55421 29.7 3.47143 29.7H23.5286C25.4457 29.7 27 28.1457 27 26.2286V6.17143C27 4.25421 25.4457 2.7 23.5286 2.7H20.8286V1.15714C20.8286 0.518076 20.3105 0 19.6714 0C19.0324 0 18.5143 0.518076 18.5143 1.15714V2.7H8.48571V1.15714ZM24.6857 9.64286V6.17143C24.6857 5.53236 24.1676 5.01429 23.5286 5.01429H3.47143C2.83236 5.01429 2.31429 5.53236 2.31429 6.17143V9.64286H24.6857ZM2.31429 11.9571H24.6857V26.2286C24.6857 26.8676 24.1676 27.3857 23.5286 27.3857H3.47143C2.83236 27.3857 2.31429 26.8676 2.31429 26.2286V11.9571Z" fill="#FFC727"/>
</svg>
