<svg width="23" height="30" viewBox="0 0 23 30" fill="none" xmlns="http://www.w3.org/2000/svg">
<path fill-rule="evenodd" clip-rule="evenodd" d="M11.067 5.38403C7.92975 5.38403 5.38672 7.92714 5.38672 11.0643C5.38672 14.2014 7.92975 16.7445 11.067 16.7445C14.204 16.7445 16.7471 14.2014 16.7471 11.0643C16.7471 7.92714 14.204 5.38403 11.067 5.38403ZM7.60849 11.0643C7.60849 9.15416 9.15688 7.60575 11.067 7.60575C12.9769 7.60575 14.5254 9.15416 14.5254 11.0643C14.5254 12.9742 12.9769 14.5228 11.067 14.5228C9.15688 14.5228 7.60849 12.9742 7.60849 11.0643Z" fill="#FFC727"/>
<path fill-rule="evenodd" clip-rule="evenodd" d="M11.0672 0C4.95494 0 0 4.95496 0 11.0672C0 15.2208 1.58712 19.0021 3.47245 22.0368C5.36113 25.0769 7.5936 27.4394 8.99254 28.7777C10.1803 29.9137 12.0087 29.9116 13.1935 28.7719C14.5861 27.4323 16.8059 25.0696 18.6834 22.0303C20.5576 18.9963 22.1344 15.2174 22.1344 11.0672C22.1344 4.95496 17.1794 0 11.0672 0ZM2.22171 11.0672C2.22171 6.18196 6.18196 2.22171 11.0672 2.22171C15.9524 2.22171 19.9127 6.18196 19.9127 11.0672C19.9127 14.6597 18.5425 18.0311 16.7931 20.8627C15.0472 23.689 12.9669 25.9071 11.6533 27.1708C11.3271 27.4845 10.8555 27.4852 10.5283 27.1721C9.20834 25.9096 7.116 23.6914 5.35962 20.8644C3.59992 18.032 2.22171 14.6598 2.22171 11.0672Z" fill="#FFC727"/>
</svg>
