<svg width="19" height="30" viewBox="0 0 19 30" fill="none" xmlns="http://www.w3.org/2000/svg">
<path d="M7.77687 22.9578C7.16338 22.9578 6.66602 23.4552 6.66602 24.0687C6.66602 24.6822 7.16338 25.1795 7.77687 25.1795H10.7392C11.3526 25.1795 11.85 24.6822 11.85 24.0687C11.85 23.4552 11.3526 22.9578 10.7392 22.9578H7.77687Z" fill="#FFC727"/>
<path fill-rule="evenodd" clip-rule="evenodd" d="M3.33257 0C1.49204 0 0 1.49204 0 3.33257V26.2903C0 28.1308 1.49204 29.6229 3.33257 29.6229H15.1817C17.0222 29.6229 18.5143 28.1308 18.5143 26.2903V3.33257C18.5143 1.49204 17.0222 0 15.1817 0H3.33257ZM2.22171 3.33257C2.22171 2.71907 2.71907 2.22171 3.33257 2.22171H15.1817C15.7952 2.22171 16.2926 2.71907 16.2926 3.33257V26.2903C16.2926 26.9038 15.7952 27.4011 15.1817 27.4011H3.33257C2.71907 27.4011 2.22171 26.9038 2.22171 26.2903V3.33257Z" fill="#FFC727"/>
</svg>
